<?xml version="1.0"?>
<!-- Generated by SVGo -->
<svg width="106.202mm" height="125.252mm"
     viewBox="0.000 0.000 106.202 125.252"
     xmlns="http://www.w3.org/2000/svg" 
     xmlns:xlink="http://www.w3.org/1999/xlink">
<polygon points="96.202,5.001 96.594,5.016 96.984,5.062 97.369,5.139 97.747,5.245 98.115,5.381 98.471,5.545 98.814,5.737 99.140,5.955 99.449,6.198 99.737,6.465 100.004,6.753 100.247,7.062 100.465,7.388 100.657,7.731 100.821,8.087 100.957,8.455 101.063,8.833 101.140,9.218 101.186,9.608 101.202,10.001 101.202,115.251 101.186,115.644 101.140,116.034 101.063,116.419 100.957,116.797 100.821,117.165 100.657,117.521 100.465,117.864 100.247,118.190 100.004,118.499 99.737,118.787 99.449,119.054 99.140,119.297 98.814,119.515 98.471,119.707 98.115,119.871 97.747,120.007 97.369,120.113 96.984,120.190 96.594,120.236 96.201,120.252 10.001,120.251 9.608,120.236 9.218,120.190 8.833,120.113 8.455,120.007 8.087,119.871 7.731,119.707 7.388,119.515 7.062,119.297 6.753,119.054 6.465,118.787 6.198,118.499 5.955,118.190 5.737,117.864 5.545,117.521 5.381,117.165 5.245,116.797 5.139,116.419 5.062,116.034 5.016,115.644 5.000,115.251 5.001,10.001 5.016,9.608 5.062,9.218 5.139,8.833 5.245,8.455 5.381,8.087 5.545,7.731 5.737,7.388 5.955,7.062 6.198,6.753 6.465,6.465 6.753,6.198 7.062,5.955 7.388,5.737 7.731,5.545 8.087,5.381 8.455,5.245 8.833,5.139 9.218,5.062 9.608,5.016 10.001,5.000" style="fill:none;stroke-width:0.050000mm;stroke:black"/>
<polygon points="95.738,113.825 95.320,114.038 94.988,114.370 94.775,114.788 94.702,115.251 94.775,115.715 94.988,116.133 95.320,116.465 95.738,116.678 96.202,116.751 96.665,116.678 97.083,116.465 97.415,116.133 97.628,115.715 97.702,115.251 97.628,114.788 97.415,114.370 97.083,114.038 96.665,113.825 96.202,113.751" style="fill:none;stroke-width:0.050000mm;stroke:black"/>
<polygon points="9.537,113.825 9.119,114.038 8.787,114.370 8.574,114.788 8.501,115.251 8.574,115.715 8.787,116.133 9.119,116.465 9.537,116.678 10.001,116.751 10.464,116.678 10.882,116.465 11.214,116.133 11.427,115.715 11.501,115.251 11.427,114.788 11.214,114.370 10.882,114.038 10.464,113.825 10.001,113.751" style="fill:none;stroke-width:0.050000mm;stroke:black"/>
<polygon points="17.526,93.726 17.526,94.325 16.725,94.325 16.725,107.126 17.526,107.126 17.526,107.726 31.526,107.726 31.526,107.126 32.324,107.126 32.324,94.325 31.526,94.325 31.526,93.726" style="fill:none;stroke-width:0.050000mm;stroke:black"/>
<polygon points="36.576,93.726 36.576,94.325 35.776,94.325 35.776,107.126 36.576,107.126 36.576,107.726 50.576,107.726 50.576,107.126 51.376,107.126 51.376,94.325 50.576,94.325 50.576,93.726" style="fill:none;stroke-width:0.050000mm;stroke:black"/>
<polygon points="55.626,93.726 55.626,94.325 54.826,94.325 54.826,107.126 55.626,107.126 55.626,107.726 69.626,107.726 69.626,107.126 70.426,107.126 70.426,94.325 69.626,94.325 69.626,93.726" style="fill:none;stroke-width:0.050000mm;stroke:black"/>
<polygon points="74.676,93.726 74.676,94.325 73.876,94.325 73.876,107.126 74.676,107.126 74.676,107.726 88.676,107.726 88.676,107.126 89.476,107.126 89.476,94.325 88.676,94.325 88.676,93.726" style="fill:none;stroke-width:0.050000mm;stroke:black"/>
<polygon points="17.526,74.676 17.526,75.275 16.725,75.275 16.725,88.076 17.526,88.076 17.526,88.676 31.526,88.676 31.526,88.076 32.324,88.076 32.324,75.275 31.526,75.275 31.526,74.676" style="fill:none;stroke-width:0.050000mm;stroke:black"/>
<polygon points="36.576,74.676 36.576,75.275 35.776,75.275 35.776,88.076 36.576,88.076 36.576,88.676 50.576,88.676 50.576,88.076 51.376,88.076 51.376,75.275 50.576,75.275 50.576,74.676" style="fill:none;stroke-width:0.050000mm;stroke:black"/>
<polygon points="55.626,74.676 55.626,75.275 54.826,75.275 54.826,88.076 55.626,88.076 55.626,88.676 69.626,88.676 69.626,88.076 70.426,88.076 70.426,75.275 69.626,75.275 69.626,74.676" style="fill:none;stroke-width:0.050000mm;stroke:black"/>
<polygon points="74.676,74.676 74.676,75.275 73.876,75.275 73.876,88.076 74.676,88.076 74.676,88.676 88.676,88.676 88.676,88.076 89.476,88.076 89.476,75.275 88.676,75.275 88.676,74.676" style="fill:none;stroke-width:0.050000mm;stroke:black"/>
<polygon points="17.526,55.626 17.526,56.226 16.725,56.226 16.725,69.026 17.526,69.026 17.526,69.626 31.526,69.626 31.526,69.026 32.324,69.026 32.324,56.226 31.526,56.226 31.526,55.626" style="fill:none;stroke-width:0.050000mm;stroke:black"/>
<polygon points="36.576,55.626 36.576,56.226 35.776,56.226 35.776,69.026 36.576,69.026 36.576,69.626 50.576,69.626 50.576,69.026 51.376,69.026 51.376,56.226 50.576,56.226 50.576,55.626" style="fill:none;stroke-width:0.050000mm;stroke:black"/>
<polygon points="55.626,55.626 55.626,56.226 54.826,56.226 54.826,69.026 55.626,69.026 55.626,69.626 69.626,69.626 69.626,69.026 70.426,69.026 70.426,56.226 69.626,56.226 69.626,55.626" style="fill:none;stroke-width:0.050000mm;stroke:black"/>
<polygon points="74.676,55.626 74.676,56.226 73.876,56.226 73.876,69.026 74.676,69.026 74.676,69.626 88.676,69.626 88.676,69.026 89.476,69.026 89.476,56.226 88.676,56.226 88.676,55.626" style="fill:none;stroke-width:0.050000mm;stroke:black"/>
<polygon points="95.738,61.199 95.320,61.412 94.988,61.744 94.775,62.162 94.702,62.626 94.775,63.090 94.988,63.508 95.320,63.840 95.738,64.053 96.202,64.126 96.665,64.053 97.083,63.840 97.415,63.508 97.628,63.090 97.702,62.626 97.628,62.162 97.415,61.744 97.083,61.412 96.665,61.199 96.202,61.126" style="fill:none;stroke-width:0.050000mm;stroke:black"/>
<polygon points="9.537,61.199 9.119,61.412 8.787,61.744 8.574,62.162 8.501,62.626 8.574,63.090 8.787,63.508 9.119,63.840 9.537,64.053 10.001,64.126 10.464,64.053 10.882,63.840 11.214,63.508 11.427,63.090 11.501,62.626 11.427,62.162 11.214,61.744 10.882,61.412 10.464,61.199 10.001,61.126" style="fill:none;stroke-width:0.050000mm;stroke:black"/>
<polygon points="17.526,36.576 17.526,37.176 16.725,37.176 16.725,49.976 17.526,49.976 17.526,50.576 31.526,50.576 31.526,49.976 32.324,49.976 32.324,37.176 31.526,37.176 31.526,36.576" style="fill:none;stroke-width:0.050000mm;stroke:black"/>
<polygon points="36.576,36.576 36.576,37.176 35.776,37.176 35.776,49.976 36.576,49.976 36.576,50.576 50.576,50.576 50.576,49.976 51.376,49.976 51.376,37.176 50.576,37.176 50.576,36.576" style="fill:none;stroke-width:0.050000mm;stroke:black"/>
<polygon points="55.626,36.576 55.626,37.176 54.826,37.176 54.826,49.976 55.626,49.976 55.626,50.576 69.626,50.576 69.626,49.976 70.426,49.976 70.426,37.176 69.626,37.176 69.626,36.576" style="fill:none;stroke-width:0.050000mm;stroke:black"/>
<polygon points="74.676,36.576 74.676,37.176 73.876,37.176 73.876,49.976 74.676,49.976 74.676,50.576 88.676,50.576 88.676,49.976 89.476,49.976 89.476,37.176 88.676,37.176 88.676,36.576" style="fill:none;stroke-width:0.050000mm;stroke:black"/>
<polygon points="17.526,17.526 17.526,18.126 16.725,18.126 16.725,30.925 17.526,30.925 17.526,31.526 31.526,31.526 31.526,30.925 32.324,30.925 32.324,18.126 31.526,18.126 31.526,17.526" style="fill:none;stroke-width:0.050000mm;stroke:black"/>
<polygon points="36.576,17.526 36.576,18.126 35.776,18.126 35.776,30.925 36.576,30.925 36.576,31.526 50.576,31.526 50.576,30.925 51.376,30.925 51.376,18.126 50.576,18.126 50.576,17.526" style="fill:none;stroke-width:0.050000mm;stroke:black"/>
<polygon points="55.626,17.526 55.626,18.126 54.826,18.126 54.826,30.925 55.626,30.925 55.626,31.526 69.626,31.526 69.626,30.925 70.426,30.925 70.426,18.126 69.626,18.126 69.626,17.526" style="fill:none;stroke-width:0.050000mm;stroke:black"/>
<polygon points="74.676,17.526 74.676,18.126 73.876,18.126 73.876,30.925 74.676,30.925 74.676,31.526 88.676,31.526 88.676,30.925 89.476,30.925 89.476,18.126 88.676,18.126 88.676,17.526" style="fill:none;stroke-width:0.050000mm;stroke:black"/>
<polygon points="95.738,8.574 95.320,8.787 94.988,9.119 94.775,9.537 94.702,10.001 94.775,10.464 94.988,10.882 95.320,11.214 95.738,11.427 96.202,11.501 96.665,11.427 97.083,11.214 97.415,10.882 97.628,10.464 97.702,10.001 97.628,9.537 97.415,9.119 97.083,8.787 96.665,8.574 96.202,8.501" style="fill:none;stroke-width:0.050000mm;stroke:black"/>
<polygon points="9.537,8.574 9.119,8.787 8.787,9.119 8.574,9.537 8.501,10.001 8.574,10.464 8.787,10.882 9.119,11.214 9.537,11.427 10.001,11.501 10.464,11.427 10.882,11.214 11.214,10.882 11.427,10.464 11.501,10.001 11.427,9.537 11.214,9.119 10.882,8.787 10.464,8.574 10.001,8.501" style="fill:none;stroke-width:0.050000mm;stroke:black"/>
</svg>
