<?xml version="1.0"?>
<!-- Generated by SVGo -->
<svg width="106.202mm" height="125.252mm"
     viewBox="0.000 0.000 106.202 125.252"
     xmlns="http://www.w3.org/2000/svg" 
     xmlns:xlink="http://www.w3.org/1999/xlink">
<polygon points="96.202,5.001 96.594,5.016 96.984,5.062 97.369,5.139 97.747,5.245 98.115,5.381 98.471,5.545 98.814,5.737 99.140,5.955 99.449,6.198 99.737,6.465 100.004,6.753 100.247,7.062 100.465,7.388 100.657,7.731 100.821,8.087 100.957,8.455 101.063,8.833 101.140,9.218 101.186,9.608 101.202,10.001 101.202,115.251 101.186,115.644 101.140,116.034 101.063,116.419 100.957,116.797 100.821,117.165 100.657,117.521 100.465,117.864 100.247,118.190 100.004,118.499 99.737,118.787 99.449,119.054 99.140,119.297 98.814,119.515 98.471,119.707 98.115,119.871 97.747,120.007 97.369,120.113 96.984,120.190 96.594,120.236 96.201,120.252 10.001,120.251 9.608,120.236 9.218,120.190 8.833,120.113 8.455,120.007 8.087,119.871 7.731,119.707 7.388,119.515 7.062,119.297 6.753,119.054 6.465,118.787 6.198,118.499 5.955,118.190 5.737,117.864 5.545,117.521 5.381,117.165 5.245,116.797 5.139,116.419 5.062,116.034 5.016,115.644 5.000,115.251 5.001,10.001 5.016,9.608 5.062,9.218 5.139,8.833 5.245,8.455 5.381,8.087 5.545,7.731 5.737,7.388 5.955,7.062 6.198,6.753 6.465,6.465 6.753,6.198 7.062,5.955 7.388,5.737 7.731,5.545 8.087,5.381 8.455,5.245 8.833,5.139 9.218,5.062 9.608,5.016 10.001,5.000" style="fill:none;stroke-width:0.050000mm;stroke:black"/>
<polygon points="95.738,113.825 95.320,114.038 94.988,114.370 94.775,114.788 94.702,115.251 94.775,115.715 94.988,116.133 95.320,116.465 95.738,116.678 96.202,116.751 96.665,116.678 97.083,116.465 97.415,116.133 97.628,115.715 97.702,115.251 97.628,114.788 97.415,114.370 97.083,114.038 96.665,113.825 96.202,113.751" style="fill:none;stroke-width:0.050000mm;stroke:black"/>
<polygon points="9.537,113.825 9.119,114.038 8.787,114.370 8.574,114.788 8.501,115.251 8.574,115.715 8.787,116.133 9.119,116.465 9.537,116.678 10.001,116.751 10.464,116.678 10.882,116.465 11.214,116.133 11.427,115.715 11.501,115.251 11.427,114.788 11.214,114.370 10.882,114.038 10.464,113.825 10.001,113.751" style="fill:none;stroke-width:0.050000mm;stroke:black"/>
<polygon points="95.738,61.199 95.320,61.412 94.988,61.744 94.775,62.162 94.702,62.626 94.775,63.090 94.988,63.508 95.320,63.840 95.738,64.053 96.202,64.126 96.665,64.053 97.083,63.840 97.415,63.508 97.628,63.090 97.702,62.626 97.628,62.162 97.415,61.744 97.083,61.412 96.665,61.199 96.202,61.126" style="fill:none;stroke-width:0.050000mm;stroke:black"/>
<polygon points="9.537,61.199 9.119,61.412 8.787,61.744 8.574,62.162 8.501,62.626 8.574,63.090 8.787,63.508 9.119,63.840 9.537,64.053 10.001,64.126 10.464,64.053 10.882,63.840 11.214,63.508 11.427,63.090 11.501,62.626 11.427,62.162 11.214,61.744 10.882,61.412 10.464,61.199 10.001,61.126" style="fill:none;stroke-width:0.050000mm;stroke:black"/>
<polygon points="95.738,8.574 95.320,8.787 94.988,9.119 94.775,9.537 94.702,10.001 94.775,10.464 94.988,10.882 95.320,11.214 95.738,11.427 96.202,11.501 96.665,11.427 97.083,11.214 97.415,10.882 97.628,10.464 97.702,10.001 97.628,9.537 97.415,9.119 97.083,8.787 96.665,8.574 96.202,8.501" style="fill:none;stroke-width:0.050000mm;stroke:black"/>
<polygon points="9.537,8.574 9.119,8.787 8.787,9.119 8.574,9.537 8.501,10.001 8.574,10.464 8.787,10.882 9.119,11.214 9.537,11.427 10.001,11.501 10.464,11.427 10.882,11.214 11.214,10.882 11.427,10.464 11.501,10.001 11.427,9.537 11.214,9.119 10.882,8.787 10.464,8.574 10.001,8.501" style="fill:none;stroke-width:0.050000mm;stroke:black"/>
</svg>
