M48
; DRILL file {KiCad 5.1.6-c6e7f7d~87~ubuntu20.04.1} date Sun Nov 22 02:32:42 2020
; FORMAT={-:-/ absolute / inch / decimal}
; #@! TF.CreationDate,2020-11-22T02:32:42-05:00
; #@! TF.GenerationSoftware,Kicad,Pcbnew,5.1.6-c6e7f7d~87~ubuntu20.04.1
; #@! TF.FileFunction,Plated,1,2,PTH
FMAT,2
INCH
T1C0.0120
T2C0.0275
T3C0.0314
T4C0.0354
T5C0.0390
T6C0.0400
T7C0.0472
T8C0.0590
%
G90
G05
T1
X4.3627Y-3.1011
X4.8077Y-2.114
X4.8221Y-3.5706
X4.9359Y-4.1419
X4.9904Y-3.4975
X5.2252Y-3.7421
X5.235Y-3.9619
X5.3685Y-2.6178
X5.3935Y-3.3264
X5.5925Y-3.2858
X5.6001Y-3.5378
X5.7237Y-2.1161
X6.0486Y-2.7364
X6.22Y-2.7699
T2
X5.7Y-2.6758
X5.7Y-2.7742
T3
X5.9016Y-1.925
X6.0984Y-1.925
T4
X6.325Y-2.2
X6.325Y-2.5
X7.075Y-3.7
X7.075Y-4.0
X7.075Y-2.2
X7.075Y-2.5
X4.825Y-4.45
X4.825Y-4.75
X7.075Y-5.2
X7.075Y-5.5
X4.35Y-2.675
X4.65Y-2.675
X4.825Y-2.95
X4.825Y-3.25
X5.575Y-4.45
X5.575Y-4.75
X5.1Y-3.525
X5.4Y-3.525
X5.1Y-4.925
X5.4Y-4.925
X6.325Y-4.45
X6.325Y-4.75
X6.6Y-4.175
X6.9Y-4.175
X6.6Y-4.925
X6.9Y-4.925
X6.6Y-5.675
X6.9Y-5.675
X5.1Y-2.675
X5.4Y-2.675
X5.1Y-4.175
X5.4Y-4.175
X5.1Y-5.675
X5.4Y-5.675
X5.675Y-2.95
X5.675Y-3.25
X7.075Y-4.45
X7.075Y-4.75
X6.6Y-3.425
X6.9Y-3.425
X5.1Y-3.425
X5.4Y-3.425
X6.325Y-2.95
X6.325Y-3.25
X4.825Y-5.2
X4.825Y-5.5
X6.6Y-2.675
X6.9Y-2.675
X5.675Y-2.2
X5.675Y-2.5
X7.075Y-2.95
X7.075Y-3.25
X4.825Y-3.7
X4.825Y-4.0
X5.575Y-5.2
X5.575Y-5.5
X4.35Y-4.925
X4.65Y-4.925
X5.85Y-2.675
X6.15Y-2.675
X5.85Y-4.175
X6.15Y-4.175
X5.85Y-4.925
X6.15Y-4.925
X5.85Y-5.675
X6.15Y-5.675
X5.575Y-3.7
X5.575Y-4.0
X4.825Y-2.2
X4.825Y-2.5
X4.35Y-4.175
X4.65Y-4.175
X4.35Y-5.675
X4.65Y-5.675
X5.85Y-3.425
X6.15Y-3.425
X6.325Y-3.7
X6.325Y-4.0
X6.325Y-5.2
X6.325Y-5.5
X4.35Y-3.425
X4.65Y-3.425
T5
X4.45Y-2.9
X4.55Y-2.9
X5.95Y-4.4
X6.05Y-4.4
X6.7Y-5.15
X6.8Y-5.15
X4.45Y-5.15
X4.55Y-5.15
X5.2Y-5.15
X5.3Y-5.15
X4.45Y-3.65
X4.55Y-3.65
X5.2Y-2.15
X5.3Y-2.15
X5.95Y-2.15
X6.05Y-2.15
X6.7Y-2.15
X6.8Y-2.15
X6.7Y-2.9
X6.8Y-2.9
X5.95Y-3.65
X6.05Y-3.65
X4.45Y-2.15
X4.55Y-2.15
X5.95Y-5.15
X6.05Y-5.15
X5.2Y-4.4
X5.3Y-4.4
X6.7Y-3.65
X6.8Y-3.65
X5.2Y-3.65
X5.3Y-3.65
X4.45Y-4.4
X4.55Y-4.4
X5.2Y-2.9
X5.3Y-2.9
X5.95Y-2.9
X6.05Y-2.9
X6.7Y-4.4
X6.8Y-4.4
T6
X4.175Y-2.625
X4.175Y-2.725
X4.175Y-2.825
X4.4Y-2.025
X4.5Y-2.025
X4.6Y-2.025
X4.175Y-3.0
X4.175Y-3.1
X4.175Y-3.2
X6.325Y-2.625
X6.325Y-2.725
X6.325Y-2.825
X6.425Y-2.625
X6.425Y-2.725
X6.425Y-2.825
X4.95Y-2.025
X4.95Y-2.125
X4.95Y-2.225
X4.95Y-2.325
X4.95Y-2.425
X4.95Y-2.525
X4.95Y-2.625
X4.95Y-2.725
X4.95Y-2.825
X4.95Y-2.925
X4.95Y-3.025
X4.95Y-3.125
X5.55Y-2.025
X5.55Y-2.125
X5.55Y-2.225
X5.55Y-2.325
X5.55Y-2.425
X5.55Y-2.525
X5.55Y-2.625
X5.55Y-2.725
X5.55Y-2.825
X5.55Y-2.925
X5.55Y-3.025
X5.55Y-3.125
X4.175Y-3.375
X4.175Y-3.475
X4.175Y-3.575
X4.175Y-2.25
X4.175Y-2.35
X4.175Y-2.45
T7
X5.8623Y-2.0234
X6.1377Y-2.0234
T8
X5.15Y-2.55
X5.1516Y-2.5272
X5.3484Y-2.5075
X5.4Y-2.45
X5.9Y-2.55
X5.9016Y-2.5272
X6.0984Y-2.5075
X6.15Y-2.45
X6.65Y-2.55
X6.6516Y-2.5272
X6.8484Y-2.5075
X6.9Y-2.45
X6.65Y-3.3
X6.6516Y-3.2772
X6.8484Y-3.2575
X6.9Y-3.2
X5.9Y-4.05
X5.9016Y-4.0272
X6.0984Y-4.0075
X6.15Y-3.95
X4.4Y-2.55
X4.4016Y-2.5272
X4.5984Y-2.5075
X4.65Y-2.45
X5.9Y-5.55
X5.9016Y-5.5272
X6.0984Y-5.5075
X6.15Y-5.45
X5.15Y-4.8
X5.1516Y-4.7772
X5.3484Y-4.7575
X5.4Y-4.7
X6.65Y-4.05
X6.6516Y-4.0272
X6.8484Y-4.0075
X6.9Y-3.95
X5.15Y-4.05
X5.1516Y-4.0272
X5.3484Y-4.0075
X5.4Y-3.95
X4.4Y-4.8
X4.4016Y-4.7772
X4.5984Y-4.7575
X4.65Y-4.7
X5.15Y-3.3
X5.1516Y-3.2772
X5.3484Y-3.2575
X5.4Y-3.2
X5.9Y-3.3
X5.9016Y-3.2772
X6.0984Y-3.2575
X6.15Y-3.2
X6.65Y-4.8
X6.6516Y-4.7772
X6.8484Y-4.7575
X6.9Y-4.7
X4.4Y-3.3
X4.4016Y-3.2772
X4.5984Y-3.2575
X4.65Y-3.2
X5.9Y-4.8
X5.9016Y-4.7772
X6.0984Y-4.7575
X6.15Y-4.7
X6.65Y-5.55
X6.6516Y-5.5272
X6.8484Y-5.5075
X6.9Y-5.45
X4.4Y-5.55
X4.4016Y-5.5272
X4.5984Y-5.5075
X4.65Y-5.45
X5.15Y-5.55
X5.1516Y-5.5272
X5.3484Y-5.5075
X5.4Y-5.45
X4.4Y-4.05
X4.4016Y-4.0272
X4.5984Y-4.0075
X4.65Y-3.95
T0
M30
