M48
; DRILL file {KiCad 5.1.2-f72e74a~84~ubuntu18.04.1} date Tue 30 Jul 2019 04:00:31 PM EDT
; FORMAT={-:-/ absolute / inch / decimal}
; #@! TF.CreationDate,2019-07-30T16:00:31-04:00
; #@! TF.GenerationSoftware,Kicad,Pcbnew,5.1.2-f72e74a~84~ubuntu18.04.1
; #@! TF.FileFunction,NonPlated,1,2,NPTH
FMAT,2
INCH
T1C0.0670
T2C0.1570
%
G90
G05
T1
X5.05Y-3.1
X5.45Y-3.1
X5.8Y-4.6
X6.2Y-4.6
X5.8Y-5.35
X6.2Y-5.35
X6.55Y-3.85
X6.95Y-3.85
X5.05Y-5.35
X5.45Y-5.35
X6.55Y-3.1
X6.95Y-3.1
X5.8Y-2.35
X6.2Y-2.35
X4.3Y-3.85
X4.7Y-3.85
X5.05Y-4.6
X5.45Y-4.6
X4.3Y-3.1
X4.7Y-3.1
X4.3Y-2.35
X4.7Y-2.35
X5.8Y-3.85
X6.2Y-3.85
X4.3Y-4.6
X4.7Y-4.6
X6.55Y-5.35
X6.95Y-5.35
X6.55Y-4.6
X6.95Y-4.6
X5.05Y-2.35
X5.45Y-2.35
X4.3Y-5.35
X4.7Y-5.35
X5.8Y-3.1
X6.2Y-3.1
X5.05Y-3.85
X5.45Y-3.85
X6.55Y-2.35
X6.95Y-2.35
T2
X6.0Y-4.6
X6.0Y-5.35
X6.75Y-3.85
X5.25Y-5.35
X6.75Y-3.1
X6.0Y-2.35
X4.5Y-3.85
X5.25Y-4.6
X4.5Y-3.1
X4.5Y-2.35
X6.0Y-3.85
X4.5Y-4.6
X6.75Y-5.35
X6.75Y-4.6
X5.25Y-2.35
X4.5Y-5.35
X6.0Y-3.1
X5.25Y-3.85
X6.75Y-2.35
X5.25Y-3.1
T0
M30
