G04 #@! TF.GenerationSoftware,KiCad,Pcbnew,(5.1.5)-3*
G04 #@! TF.CreationDate,2020-07-25T17:48:00-04:00*
G04 #@! TF.ProjectId,top-plate,746f702d-706c-4617-9465-2e6b69636164,rev?*
G04 #@! TF.SameCoordinates,Original*
G04 #@! TF.FileFunction,Legend,Top*
G04 #@! TF.FilePolarity,Positive*
%FSLAX46Y46*%
G04 Gerber Fmt 4.6, Leading zero omitted, Abs format (unit mm)*
G04 Created by KiCad (PCBNEW (5.1.5)-3) date 2020-07-25 17:48:00*
%MOMM*%
%LPD*%
G04 APERTURE LIST*
%ADD10C,0.300000*%
%ADD11C,0.100000*%
%ADD12C,0.150000*%
G04 APERTURE END LIST*
D10*
X143153571Y-47517857D02*
X143367857Y-47589285D01*
X143439285Y-47660714D01*
X143510714Y-47803571D01*
X143510714Y-48017857D01*
X143439285Y-48160714D01*
X143367857Y-48232142D01*
X143225000Y-48303571D01*
X142653571Y-48303571D01*
X142653571Y-46803571D01*
X143153571Y-46803571D01*
X143296428Y-46875000D01*
X143367857Y-46946428D01*
X143439285Y-47089285D01*
X143439285Y-47232142D01*
X143367857Y-47375000D01*
X143296428Y-47446428D01*
X143153571Y-47517857D01*
X142653571Y-47517857D01*
X144367857Y-48303571D02*
X144225000Y-48232142D01*
X144153571Y-48160714D01*
X144082142Y-48017857D01*
X144082142Y-47589285D01*
X144153571Y-47446428D01*
X144225000Y-47375000D01*
X144367857Y-47303571D01*
X144582142Y-47303571D01*
X144725000Y-47375000D01*
X144796428Y-47446428D01*
X144867857Y-47589285D01*
X144867857Y-48017857D01*
X144796428Y-48160714D01*
X144725000Y-48232142D01*
X144582142Y-48303571D01*
X144367857Y-48303571D01*
X145296428Y-47303571D02*
X145867857Y-47303571D01*
X145510714Y-46803571D02*
X145510714Y-48089285D01*
X145582142Y-48232142D01*
X145725000Y-48303571D01*
X145867857Y-48303571D01*
X146153571Y-47303571D02*
X146725000Y-47303571D01*
X146367857Y-46803571D02*
X146367857Y-48089285D01*
X146439285Y-48232142D01*
X146582142Y-48303571D01*
X146725000Y-48303571D01*
X147439285Y-48303571D02*
X147296428Y-48232142D01*
X147225000Y-48160714D01*
X147153571Y-48017857D01*
X147153571Y-47589285D01*
X147225000Y-47446428D01*
X147296428Y-47375000D01*
X147439285Y-47303571D01*
X147653571Y-47303571D01*
X147796428Y-47375000D01*
X147867857Y-47446428D01*
X147939285Y-47589285D01*
X147939285Y-48017857D01*
X147867857Y-48160714D01*
X147796428Y-48232142D01*
X147653571Y-48303571D01*
X147439285Y-48303571D01*
X148582142Y-48303571D02*
X148582142Y-47303571D01*
X148582142Y-47446428D02*
X148653571Y-47375000D01*
X148796428Y-47303571D01*
X149010714Y-47303571D01*
X149153571Y-47375000D01*
X149225000Y-47517857D01*
X149225000Y-48303571D01*
X149225000Y-47517857D02*
X149296428Y-47375000D01*
X149439285Y-47303571D01*
X149653571Y-47303571D01*
X149796428Y-47375000D01*
X149867857Y-47517857D01*
X149867857Y-48303571D01*
X151653571Y-48232142D02*
X151867857Y-48303571D01*
X152225000Y-48303571D01*
X152367857Y-48232142D01*
X152439285Y-48160714D01*
X152510714Y-48017857D01*
X152510714Y-47875000D01*
X152439285Y-47732142D01*
X152367857Y-47660714D01*
X152225000Y-47589285D01*
X151939285Y-47517857D01*
X151796428Y-47446428D01*
X151725000Y-47375000D01*
X151653571Y-47232142D01*
X151653571Y-47089285D01*
X151725000Y-46946428D01*
X151796428Y-46875000D01*
X151939285Y-46803571D01*
X152296428Y-46803571D01*
X152510714Y-46875000D01*
X153153571Y-48303571D02*
X153153571Y-47303571D01*
X153153571Y-46803571D02*
X153082142Y-46875000D01*
X153153571Y-46946428D01*
X153225000Y-46875000D01*
X153153571Y-46803571D01*
X153153571Y-46946428D01*
X154510714Y-48303571D02*
X154510714Y-46803571D01*
X154510714Y-48232142D02*
X154367857Y-48303571D01*
X154082142Y-48303571D01*
X153939285Y-48232142D01*
X153867857Y-48160714D01*
X153796428Y-48017857D01*
X153796428Y-47589285D01*
X153867857Y-47446428D01*
X153939285Y-47375000D01*
X154082142Y-47303571D01*
X154367857Y-47303571D01*
X154510714Y-47375000D01*
X155796428Y-48232142D02*
X155653571Y-48303571D01*
X155367857Y-48303571D01*
X155225000Y-48232142D01*
X155153571Y-48089285D01*
X155153571Y-47517857D01*
X155225000Y-47375000D01*
X155367857Y-47303571D01*
X155653571Y-47303571D01*
X155796428Y-47375000D01*
X155867857Y-47517857D01*
X155867857Y-47660714D01*
X155153571Y-47803571D01*
D11*
X150164800Y-149860000D02*
G75*
G03X150164800Y-149860000I-939800J0D01*
G01*
X149733000Y-149860000D02*
G75*
G03X149733000Y-149860000I-508000J0D01*
G01*
X193979800Y-96520000D02*
G75*
G03X193979800Y-96520000I-939800J0D01*
G01*
X193548000Y-96520000D02*
G75*
G03X193548000Y-96520000I-508000J0D01*
G01*
X106349800Y-96520000D02*
G75*
G03X106349800Y-96520000I-939800J0D01*
G01*
X105918000Y-96520000D02*
G75*
G03X105918000Y-96520000I-508000J0D01*
G01*
X105918000Y-149860000D02*
G75*
G03X105918000Y-149860000I-508000J0D01*
G01*
X106349800Y-149860000D02*
G75*
G03X106349800Y-149860000I-939800J0D01*
G01*
X105918000Y-43180000D02*
G75*
G03X105918000Y-43180000I-508000J0D01*
G01*
X106349800Y-43180000D02*
G75*
G03X106349800Y-43180000I-939800J0D01*
G01*
X193548000Y-43180000D02*
G75*
G03X193548000Y-43180000I-508000J0D01*
G01*
X193979800Y-43180000D02*
G75*
G03X193979800Y-43180000I-939800J0D01*
G01*
X193548000Y-149860000D02*
G75*
G03X193548000Y-149860000I-508000J0D01*
G01*
X193979800Y-149860000D02*
G75*
G03X193979800Y-149860000I-939800J0D01*
G01*
D12*
X119316666Y-141072380D02*
X118983333Y-140596190D01*
X118745238Y-141072380D02*
X118745238Y-140072380D01*
X119126190Y-140072380D01*
X119221428Y-140120000D01*
X119269047Y-140167619D01*
X119316666Y-140262857D01*
X119316666Y-140405714D01*
X119269047Y-140500952D01*
X119221428Y-140548571D01*
X119126190Y-140596190D01*
X118745238Y-140596190D01*
X119745238Y-140548571D02*
X120078571Y-140548571D01*
X120221428Y-141072380D02*
X119745238Y-141072380D01*
X119745238Y-140072380D01*
X120221428Y-140072380D01*
X120983333Y-140548571D02*
X120650000Y-140548571D01*
X120650000Y-141072380D02*
X120650000Y-140072380D01*
X121126190Y-140072380D01*
X121650000Y-140072380D02*
X121650000Y-140310476D01*
X121411904Y-140215238D02*
X121650000Y-140310476D01*
X121888095Y-140215238D01*
X121507142Y-140500952D02*
X121650000Y-140310476D01*
X121792857Y-140500952D01*
X122411904Y-140072380D02*
X122411904Y-140310476D01*
X122173809Y-140215238D02*
X122411904Y-140310476D01*
X122650000Y-140215238D01*
X122269047Y-140500952D02*
X122411904Y-140310476D01*
X122554761Y-140500952D01*
X157416666Y-141072380D02*
X157083333Y-140596190D01*
X156845238Y-141072380D02*
X156845238Y-140072380D01*
X157226190Y-140072380D01*
X157321428Y-140120000D01*
X157369047Y-140167619D01*
X157416666Y-140262857D01*
X157416666Y-140405714D01*
X157369047Y-140500952D01*
X157321428Y-140548571D01*
X157226190Y-140596190D01*
X156845238Y-140596190D01*
X157845238Y-140548571D02*
X158178571Y-140548571D01*
X158321428Y-141072380D02*
X157845238Y-141072380D01*
X157845238Y-140072380D01*
X158321428Y-140072380D01*
X159083333Y-140548571D02*
X158750000Y-140548571D01*
X158750000Y-141072380D02*
X158750000Y-140072380D01*
X159226190Y-140072380D01*
X159750000Y-140072380D02*
X159750000Y-140310476D01*
X159511904Y-140215238D02*
X159750000Y-140310476D01*
X159988095Y-140215238D01*
X159607142Y-140500952D02*
X159750000Y-140310476D01*
X159892857Y-140500952D01*
X160511904Y-140072380D02*
X160511904Y-140310476D01*
X160273809Y-140215238D02*
X160511904Y-140310476D01*
X160750000Y-140215238D01*
X160369047Y-140500952D02*
X160511904Y-140310476D01*
X160654761Y-140500952D01*
X176466666Y-141072380D02*
X176133333Y-140596190D01*
X175895238Y-141072380D02*
X175895238Y-140072380D01*
X176276190Y-140072380D01*
X176371428Y-140120000D01*
X176419047Y-140167619D01*
X176466666Y-140262857D01*
X176466666Y-140405714D01*
X176419047Y-140500952D01*
X176371428Y-140548571D01*
X176276190Y-140596190D01*
X175895238Y-140596190D01*
X176895238Y-140548571D02*
X177228571Y-140548571D01*
X177371428Y-141072380D02*
X176895238Y-141072380D01*
X176895238Y-140072380D01*
X177371428Y-140072380D01*
X178133333Y-140548571D02*
X177800000Y-140548571D01*
X177800000Y-141072380D02*
X177800000Y-140072380D01*
X178276190Y-140072380D01*
X178800000Y-140072380D02*
X178800000Y-140310476D01*
X178561904Y-140215238D02*
X178800000Y-140310476D01*
X179038095Y-140215238D01*
X178657142Y-140500952D02*
X178800000Y-140310476D01*
X178942857Y-140500952D01*
X179561904Y-140072380D02*
X179561904Y-140310476D01*
X179323809Y-140215238D02*
X179561904Y-140310476D01*
X179800000Y-140215238D01*
X179419047Y-140500952D02*
X179561904Y-140310476D01*
X179704761Y-140500952D01*
X138366666Y-141072380D02*
X138033333Y-140596190D01*
X137795238Y-141072380D02*
X137795238Y-140072380D01*
X138176190Y-140072380D01*
X138271428Y-140120000D01*
X138319047Y-140167619D01*
X138366666Y-140262857D01*
X138366666Y-140405714D01*
X138319047Y-140500952D01*
X138271428Y-140548571D01*
X138176190Y-140596190D01*
X137795238Y-140596190D01*
X138795238Y-140548571D02*
X139128571Y-140548571D01*
X139271428Y-141072380D02*
X138795238Y-141072380D01*
X138795238Y-140072380D01*
X139271428Y-140072380D01*
X140033333Y-140548571D02*
X139700000Y-140548571D01*
X139700000Y-141072380D02*
X139700000Y-140072380D01*
X140176190Y-140072380D01*
X140700000Y-140072380D02*
X140700000Y-140310476D01*
X140461904Y-140215238D02*
X140700000Y-140310476D01*
X140938095Y-140215238D01*
X140557142Y-140500952D02*
X140700000Y-140310476D01*
X140842857Y-140500952D01*
X141461904Y-140072380D02*
X141461904Y-140310476D01*
X141223809Y-140215238D02*
X141461904Y-140310476D01*
X141700000Y-140215238D01*
X141319047Y-140500952D02*
X141461904Y-140310476D01*
X141604761Y-140500952D01*
X119316666Y-122022380D02*
X118983333Y-121546190D01*
X118745238Y-122022380D02*
X118745238Y-121022380D01*
X119126190Y-121022380D01*
X119221428Y-121070000D01*
X119269047Y-121117619D01*
X119316666Y-121212857D01*
X119316666Y-121355714D01*
X119269047Y-121450952D01*
X119221428Y-121498571D01*
X119126190Y-121546190D01*
X118745238Y-121546190D01*
X119745238Y-121498571D02*
X120078571Y-121498571D01*
X120221428Y-122022380D02*
X119745238Y-122022380D01*
X119745238Y-121022380D01*
X120221428Y-121022380D01*
X120983333Y-121498571D02*
X120650000Y-121498571D01*
X120650000Y-122022380D02*
X120650000Y-121022380D01*
X121126190Y-121022380D01*
X121650000Y-121022380D02*
X121650000Y-121260476D01*
X121411904Y-121165238D02*
X121650000Y-121260476D01*
X121888095Y-121165238D01*
X121507142Y-121450952D02*
X121650000Y-121260476D01*
X121792857Y-121450952D01*
X122411904Y-121022380D02*
X122411904Y-121260476D01*
X122173809Y-121165238D02*
X122411904Y-121260476D01*
X122650000Y-121165238D01*
X122269047Y-121450952D02*
X122411904Y-121260476D01*
X122554761Y-121450952D01*
X157416666Y-122022380D02*
X157083333Y-121546190D01*
X156845238Y-122022380D02*
X156845238Y-121022380D01*
X157226190Y-121022380D01*
X157321428Y-121070000D01*
X157369047Y-121117619D01*
X157416666Y-121212857D01*
X157416666Y-121355714D01*
X157369047Y-121450952D01*
X157321428Y-121498571D01*
X157226190Y-121546190D01*
X156845238Y-121546190D01*
X157845238Y-121498571D02*
X158178571Y-121498571D01*
X158321428Y-122022380D02*
X157845238Y-122022380D01*
X157845238Y-121022380D01*
X158321428Y-121022380D01*
X159083333Y-121498571D02*
X158750000Y-121498571D01*
X158750000Y-122022380D02*
X158750000Y-121022380D01*
X159226190Y-121022380D01*
X159750000Y-121022380D02*
X159750000Y-121260476D01*
X159511904Y-121165238D02*
X159750000Y-121260476D01*
X159988095Y-121165238D01*
X159607142Y-121450952D02*
X159750000Y-121260476D01*
X159892857Y-121450952D01*
X160511904Y-121022380D02*
X160511904Y-121260476D01*
X160273809Y-121165238D02*
X160511904Y-121260476D01*
X160750000Y-121165238D01*
X160369047Y-121450952D02*
X160511904Y-121260476D01*
X160654761Y-121450952D01*
X176466666Y-122022380D02*
X176133333Y-121546190D01*
X175895238Y-122022380D02*
X175895238Y-121022380D01*
X176276190Y-121022380D01*
X176371428Y-121070000D01*
X176419047Y-121117619D01*
X176466666Y-121212857D01*
X176466666Y-121355714D01*
X176419047Y-121450952D01*
X176371428Y-121498571D01*
X176276190Y-121546190D01*
X175895238Y-121546190D01*
X176895238Y-121498571D02*
X177228571Y-121498571D01*
X177371428Y-122022380D02*
X176895238Y-122022380D01*
X176895238Y-121022380D01*
X177371428Y-121022380D01*
X178133333Y-121498571D02*
X177800000Y-121498571D01*
X177800000Y-122022380D02*
X177800000Y-121022380D01*
X178276190Y-121022380D01*
X178800000Y-121022380D02*
X178800000Y-121260476D01*
X178561904Y-121165238D02*
X178800000Y-121260476D01*
X179038095Y-121165238D01*
X178657142Y-121450952D02*
X178800000Y-121260476D01*
X178942857Y-121450952D01*
X179561904Y-121022380D02*
X179561904Y-121260476D01*
X179323809Y-121165238D02*
X179561904Y-121260476D01*
X179800000Y-121165238D01*
X179419047Y-121450952D02*
X179561904Y-121260476D01*
X179704761Y-121450952D01*
X138366666Y-122022380D02*
X138033333Y-121546190D01*
X137795238Y-122022380D02*
X137795238Y-121022380D01*
X138176190Y-121022380D01*
X138271428Y-121070000D01*
X138319047Y-121117619D01*
X138366666Y-121212857D01*
X138366666Y-121355714D01*
X138319047Y-121450952D01*
X138271428Y-121498571D01*
X138176190Y-121546190D01*
X137795238Y-121546190D01*
X138795238Y-121498571D02*
X139128571Y-121498571D01*
X139271428Y-122022380D02*
X138795238Y-122022380D01*
X138795238Y-121022380D01*
X139271428Y-121022380D01*
X140033333Y-121498571D02*
X139700000Y-121498571D01*
X139700000Y-122022380D02*
X139700000Y-121022380D01*
X140176190Y-121022380D01*
X140700000Y-121022380D02*
X140700000Y-121260476D01*
X140461904Y-121165238D02*
X140700000Y-121260476D01*
X140938095Y-121165238D01*
X140557142Y-121450952D02*
X140700000Y-121260476D01*
X140842857Y-121450952D01*
X141461904Y-121022380D02*
X141461904Y-121260476D01*
X141223809Y-121165238D02*
X141461904Y-121260476D01*
X141700000Y-121165238D01*
X141319047Y-121450952D02*
X141461904Y-121260476D01*
X141604761Y-121450952D01*
X119316666Y-102972380D02*
X118983333Y-102496190D01*
X118745238Y-102972380D02*
X118745238Y-101972380D01*
X119126190Y-101972380D01*
X119221428Y-102020000D01*
X119269047Y-102067619D01*
X119316666Y-102162857D01*
X119316666Y-102305714D01*
X119269047Y-102400952D01*
X119221428Y-102448571D01*
X119126190Y-102496190D01*
X118745238Y-102496190D01*
X119745238Y-102448571D02*
X120078571Y-102448571D01*
X120221428Y-102972380D02*
X119745238Y-102972380D01*
X119745238Y-101972380D01*
X120221428Y-101972380D01*
X120983333Y-102448571D02*
X120650000Y-102448571D01*
X120650000Y-102972380D02*
X120650000Y-101972380D01*
X121126190Y-101972380D01*
X121650000Y-101972380D02*
X121650000Y-102210476D01*
X121411904Y-102115238D02*
X121650000Y-102210476D01*
X121888095Y-102115238D01*
X121507142Y-102400952D02*
X121650000Y-102210476D01*
X121792857Y-102400952D01*
X122411904Y-101972380D02*
X122411904Y-102210476D01*
X122173809Y-102115238D02*
X122411904Y-102210476D01*
X122650000Y-102115238D01*
X122269047Y-102400952D02*
X122411904Y-102210476D01*
X122554761Y-102400952D01*
X157416666Y-102972380D02*
X157083333Y-102496190D01*
X156845238Y-102972380D02*
X156845238Y-101972380D01*
X157226190Y-101972380D01*
X157321428Y-102020000D01*
X157369047Y-102067619D01*
X157416666Y-102162857D01*
X157416666Y-102305714D01*
X157369047Y-102400952D01*
X157321428Y-102448571D01*
X157226190Y-102496190D01*
X156845238Y-102496190D01*
X157845238Y-102448571D02*
X158178571Y-102448571D01*
X158321428Y-102972380D02*
X157845238Y-102972380D01*
X157845238Y-101972380D01*
X158321428Y-101972380D01*
X159083333Y-102448571D02*
X158750000Y-102448571D01*
X158750000Y-102972380D02*
X158750000Y-101972380D01*
X159226190Y-101972380D01*
X159750000Y-101972380D02*
X159750000Y-102210476D01*
X159511904Y-102115238D02*
X159750000Y-102210476D01*
X159988095Y-102115238D01*
X159607142Y-102400952D02*
X159750000Y-102210476D01*
X159892857Y-102400952D01*
X160511904Y-101972380D02*
X160511904Y-102210476D01*
X160273809Y-102115238D02*
X160511904Y-102210476D01*
X160750000Y-102115238D01*
X160369047Y-102400952D02*
X160511904Y-102210476D01*
X160654761Y-102400952D01*
X176466666Y-102972380D02*
X176133333Y-102496190D01*
X175895238Y-102972380D02*
X175895238Y-101972380D01*
X176276190Y-101972380D01*
X176371428Y-102020000D01*
X176419047Y-102067619D01*
X176466666Y-102162857D01*
X176466666Y-102305714D01*
X176419047Y-102400952D01*
X176371428Y-102448571D01*
X176276190Y-102496190D01*
X175895238Y-102496190D01*
X176895238Y-102448571D02*
X177228571Y-102448571D01*
X177371428Y-102972380D02*
X176895238Y-102972380D01*
X176895238Y-101972380D01*
X177371428Y-101972380D01*
X178133333Y-102448571D02*
X177800000Y-102448571D01*
X177800000Y-102972380D02*
X177800000Y-101972380D01*
X178276190Y-101972380D01*
X178800000Y-101972380D02*
X178800000Y-102210476D01*
X178561904Y-102115238D02*
X178800000Y-102210476D01*
X179038095Y-102115238D01*
X178657142Y-102400952D02*
X178800000Y-102210476D01*
X178942857Y-102400952D01*
X179561904Y-101972380D02*
X179561904Y-102210476D01*
X179323809Y-102115238D02*
X179561904Y-102210476D01*
X179800000Y-102115238D01*
X179419047Y-102400952D02*
X179561904Y-102210476D01*
X179704761Y-102400952D01*
X138366666Y-102972380D02*
X138033333Y-102496190D01*
X137795238Y-102972380D02*
X137795238Y-101972380D01*
X138176190Y-101972380D01*
X138271428Y-102020000D01*
X138319047Y-102067619D01*
X138366666Y-102162857D01*
X138366666Y-102305714D01*
X138319047Y-102400952D01*
X138271428Y-102448571D01*
X138176190Y-102496190D01*
X137795238Y-102496190D01*
X138795238Y-102448571D02*
X139128571Y-102448571D01*
X139271428Y-102972380D02*
X138795238Y-102972380D01*
X138795238Y-101972380D01*
X139271428Y-101972380D01*
X140033333Y-102448571D02*
X139700000Y-102448571D01*
X139700000Y-102972380D02*
X139700000Y-101972380D01*
X140176190Y-101972380D01*
X140700000Y-101972380D02*
X140700000Y-102210476D01*
X140461904Y-102115238D02*
X140700000Y-102210476D01*
X140938095Y-102115238D01*
X140557142Y-102400952D02*
X140700000Y-102210476D01*
X140842857Y-102400952D01*
X141461904Y-101972380D02*
X141461904Y-102210476D01*
X141223809Y-102115238D02*
X141461904Y-102210476D01*
X141700000Y-102115238D01*
X141319047Y-102400952D02*
X141461904Y-102210476D01*
X141604761Y-102400952D01*
X119316666Y-83922380D02*
X118983333Y-83446190D01*
X118745238Y-83922380D02*
X118745238Y-82922380D01*
X119126190Y-82922380D01*
X119221428Y-82970000D01*
X119269047Y-83017619D01*
X119316666Y-83112857D01*
X119316666Y-83255714D01*
X119269047Y-83350952D01*
X119221428Y-83398571D01*
X119126190Y-83446190D01*
X118745238Y-83446190D01*
X119745238Y-83398571D02*
X120078571Y-83398571D01*
X120221428Y-83922380D02*
X119745238Y-83922380D01*
X119745238Y-82922380D01*
X120221428Y-82922380D01*
X120983333Y-83398571D02*
X120650000Y-83398571D01*
X120650000Y-83922380D02*
X120650000Y-82922380D01*
X121126190Y-82922380D01*
X121650000Y-82922380D02*
X121650000Y-83160476D01*
X121411904Y-83065238D02*
X121650000Y-83160476D01*
X121888095Y-83065238D01*
X121507142Y-83350952D02*
X121650000Y-83160476D01*
X121792857Y-83350952D01*
X122411904Y-82922380D02*
X122411904Y-83160476D01*
X122173809Y-83065238D02*
X122411904Y-83160476D01*
X122650000Y-83065238D01*
X122269047Y-83350952D02*
X122411904Y-83160476D01*
X122554761Y-83350952D01*
X157416666Y-83922380D02*
X157083333Y-83446190D01*
X156845238Y-83922380D02*
X156845238Y-82922380D01*
X157226190Y-82922380D01*
X157321428Y-82970000D01*
X157369047Y-83017619D01*
X157416666Y-83112857D01*
X157416666Y-83255714D01*
X157369047Y-83350952D01*
X157321428Y-83398571D01*
X157226190Y-83446190D01*
X156845238Y-83446190D01*
X157845238Y-83398571D02*
X158178571Y-83398571D01*
X158321428Y-83922380D02*
X157845238Y-83922380D01*
X157845238Y-82922380D01*
X158321428Y-82922380D01*
X159083333Y-83398571D02*
X158750000Y-83398571D01*
X158750000Y-83922380D02*
X158750000Y-82922380D01*
X159226190Y-82922380D01*
X159750000Y-82922380D02*
X159750000Y-83160476D01*
X159511904Y-83065238D02*
X159750000Y-83160476D01*
X159988095Y-83065238D01*
X159607142Y-83350952D02*
X159750000Y-83160476D01*
X159892857Y-83350952D01*
X160511904Y-82922380D02*
X160511904Y-83160476D01*
X160273809Y-83065238D02*
X160511904Y-83160476D01*
X160750000Y-83065238D01*
X160369047Y-83350952D02*
X160511904Y-83160476D01*
X160654761Y-83350952D01*
X176466666Y-83922380D02*
X176133333Y-83446190D01*
X175895238Y-83922380D02*
X175895238Y-82922380D01*
X176276190Y-82922380D01*
X176371428Y-82970000D01*
X176419047Y-83017619D01*
X176466666Y-83112857D01*
X176466666Y-83255714D01*
X176419047Y-83350952D01*
X176371428Y-83398571D01*
X176276190Y-83446190D01*
X175895238Y-83446190D01*
X176895238Y-83398571D02*
X177228571Y-83398571D01*
X177371428Y-83922380D02*
X176895238Y-83922380D01*
X176895238Y-82922380D01*
X177371428Y-82922380D01*
X178133333Y-83398571D02*
X177800000Y-83398571D01*
X177800000Y-83922380D02*
X177800000Y-82922380D01*
X178276190Y-82922380D01*
X178800000Y-82922380D02*
X178800000Y-83160476D01*
X178561904Y-83065238D02*
X178800000Y-83160476D01*
X179038095Y-83065238D01*
X178657142Y-83350952D02*
X178800000Y-83160476D01*
X178942857Y-83350952D01*
X179561904Y-82922380D02*
X179561904Y-83160476D01*
X179323809Y-83065238D02*
X179561904Y-83160476D01*
X179800000Y-83065238D01*
X179419047Y-83350952D02*
X179561904Y-83160476D01*
X179704761Y-83350952D01*
X138366666Y-83922380D02*
X138033333Y-83446190D01*
X137795238Y-83922380D02*
X137795238Y-82922380D01*
X138176190Y-82922380D01*
X138271428Y-82970000D01*
X138319047Y-83017619D01*
X138366666Y-83112857D01*
X138366666Y-83255714D01*
X138319047Y-83350952D01*
X138271428Y-83398571D01*
X138176190Y-83446190D01*
X137795238Y-83446190D01*
X138795238Y-83398571D02*
X139128571Y-83398571D01*
X139271428Y-83922380D02*
X138795238Y-83922380D01*
X138795238Y-82922380D01*
X139271428Y-82922380D01*
X140033333Y-83398571D02*
X139700000Y-83398571D01*
X139700000Y-83922380D02*
X139700000Y-82922380D01*
X140176190Y-82922380D01*
X140700000Y-82922380D02*
X140700000Y-83160476D01*
X140461904Y-83065238D02*
X140700000Y-83160476D01*
X140938095Y-83065238D01*
X140557142Y-83350952D02*
X140700000Y-83160476D01*
X140842857Y-83350952D01*
X141461904Y-82922380D02*
X141461904Y-83160476D01*
X141223809Y-83065238D02*
X141461904Y-83160476D01*
X141700000Y-83065238D01*
X141319047Y-83350952D02*
X141461904Y-83160476D01*
X141604761Y-83350952D01*
X176466666Y-64872380D02*
X176133333Y-64396190D01*
X175895238Y-64872380D02*
X175895238Y-63872380D01*
X176276190Y-63872380D01*
X176371428Y-63920000D01*
X176419047Y-63967619D01*
X176466666Y-64062857D01*
X176466666Y-64205714D01*
X176419047Y-64300952D01*
X176371428Y-64348571D01*
X176276190Y-64396190D01*
X175895238Y-64396190D01*
X176895238Y-64348571D02*
X177228571Y-64348571D01*
X177371428Y-64872380D02*
X176895238Y-64872380D01*
X176895238Y-63872380D01*
X177371428Y-63872380D01*
X178133333Y-64348571D02*
X177800000Y-64348571D01*
X177800000Y-64872380D02*
X177800000Y-63872380D01*
X178276190Y-63872380D01*
X178800000Y-63872380D02*
X178800000Y-64110476D01*
X178561904Y-64015238D02*
X178800000Y-64110476D01*
X179038095Y-64015238D01*
X178657142Y-64300952D02*
X178800000Y-64110476D01*
X178942857Y-64300952D01*
X179561904Y-63872380D02*
X179561904Y-64110476D01*
X179323809Y-64015238D02*
X179561904Y-64110476D01*
X179800000Y-64015238D01*
X179419047Y-64300952D02*
X179561904Y-64110476D01*
X179704761Y-64300952D01*
X157416666Y-64872380D02*
X157083333Y-64396190D01*
X156845238Y-64872380D02*
X156845238Y-63872380D01*
X157226190Y-63872380D01*
X157321428Y-63920000D01*
X157369047Y-63967619D01*
X157416666Y-64062857D01*
X157416666Y-64205714D01*
X157369047Y-64300952D01*
X157321428Y-64348571D01*
X157226190Y-64396190D01*
X156845238Y-64396190D01*
X157845238Y-64348571D02*
X158178571Y-64348571D01*
X158321428Y-64872380D02*
X157845238Y-64872380D01*
X157845238Y-63872380D01*
X158321428Y-63872380D01*
X159083333Y-64348571D02*
X158750000Y-64348571D01*
X158750000Y-64872380D02*
X158750000Y-63872380D01*
X159226190Y-63872380D01*
X159750000Y-63872380D02*
X159750000Y-64110476D01*
X159511904Y-64015238D02*
X159750000Y-64110476D01*
X159988095Y-64015238D01*
X159607142Y-64300952D02*
X159750000Y-64110476D01*
X159892857Y-64300952D01*
X160511904Y-63872380D02*
X160511904Y-64110476D01*
X160273809Y-64015238D02*
X160511904Y-64110476D01*
X160750000Y-64015238D01*
X160369047Y-64300952D02*
X160511904Y-64110476D01*
X160654761Y-64300952D01*
X138366666Y-64872380D02*
X138033333Y-64396190D01*
X137795238Y-64872380D02*
X137795238Y-63872380D01*
X138176190Y-63872380D01*
X138271428Y-63920000D01*
X138319047Y-63967619D01*
X138366666Y-64062857D01*
X138366666Y-64205714D01*
X138319047Y-64300952D01*
X138271428Y-64348571D01*
X138176190Y-64396190D01*
X137795238Y-64396190D01*
X138795238Y-64348571D02*
X139128571Y-64348571D01*
X139271428Y-64872380D02*
X138795238Y-64872380D01*
X138795238Y-63872380D01*
X139271428Y-63872380D01*
X140033333Y-64348571D02*
X139700000Y-64348571D01*
X139700000Y-64872380D02*
X139700000Y-63872380D01*
X140176190Y-63872380D01*
X140700000Y-63872380D02*
X140700000Y-64110476D01*
X140461904Y-64015238D02*
X140700000Y-64110476D01*
X140938095Y-64015238D01*
X140557142Y-64300952D02*
X140700000Y-64110476D01*
X140842857Y-64300952D01*
X141461904Y-63872380D02*
X141461904Y-64110476D01*
X141223809Y-64015238D02*
X141461904Y-64110476D01*
X141700000Y-64015238D01*
X141319047Y-64300952D02*
X141461904Y-64110476D01*
X141604761Y-64300952D01*
X119316666Y-64872380D02*
X118983333Y-64396190D01*
X118745238Y-64872380D02*
X118745238Y-63872380D01*
X119126190Y-63872380D01*
X119221428Y-63920000D01*
X119269047Y-63967619D01*
X119316666Y-64062857D01*
X119316666Y-64205714D01*
X119269047Y-64300952D01*
X119221428Y-64348571D01*
X119126190Y-64396190D01*
X118745238Y-64396190D01*
X119745238Y-64348571D02*
X120078571Y-64348571D01*
X120221428Y-64872380D02*
X119745238Y-64872380D01*
X119745238Y-63872380D01*
X120221428Y-63872380D01*
X120983333Y-64348571D02*
X120650000Y-64348571D01*
X120650000Y-64872380D02*
X120650000Y-63872380D01*
X121126190Y-63872380D01*
X121650000Y-63872380D02*
X121650000Y-64110476D01*
X121411904Y-64015238D02*
X121650000Y-64110476D01*
X121888095Y-64015238D01*
X121507142Y-64300952D02*
X121650000Y-64110476D01*
X121792857Y-64300952D01*
X122411904Y-63872380D02*
X122411904Y-64110476D01*
X122173809Y-64015238D02*
X122411904Y-64110476D01*
X122650000Y-64015238D01*
X122269047Y-64300952D02*
X122411904Y-64110476D01*
X122554761Y-64300952D01*
M02*
