G04 #@! TF.GenerationSoftware,KiCad,Pcbnew,(5.1.5)-3*
G04 #@! TF.CreationDate,2020-07-25T17:48:00-04:00*
G04 #@! TF.ProjectId,top-plate,746f702d-706c-4617-9465-2e6b69636164,rev?*
G04 #@! TF.SameCoordinates,Original*
G04 #@! TF.FileFunction,Copper,L2,Bot*
G04 #@! TF.FilePolarity,Positive*
%FSLAX46Y46*%
G04 Gerber Fmt 4.6, Leading zero omitted, Abs format (unit mm)*
G04 Created by KiCad (PCBNEW (5.1.5)-3) date 2020-07-25 17:48:00*
%MOMM*%
%LPD*%
G04 APERTURE LIST*
%ADD10C,5.000000*%
%ADD11C,0.254000*%
G04 APERTURE END LIST*
D10*
X149225000Y-149860000D03*
X193040000Y-96520000D03*
X105410000Y-96520000D03*
X105410000Y-149860000D03*
X105410000Y-43180000D03*
X193040000Y-43180000D03*
X193040000Y-149860000D03*
D11*
G36*
X193929791Y-37562068D02*
G01*
X194488356Y-37696168D01*
X195504768Y-38204374D01*
X198015626Y-40715232D01*
X198523831Y-41731643D01*
X198657931Y-42290207D01*
X198730001Y-43205939D01*
X198730000Y-149834074D01*
X198657931Y-150749793D01*
X198523831Y-151308357D01*
X198015626Y-152324768D01*
X195504768Y-154835626D01*
X194488356Y-155343832D01*
X193929791Y-155477932D01*
X193014074Y-155550000D01*
X105435926Y-155550000D01*
X104520207Y-155477931D01*
X103961643Y-155343831D01*
X102945232Y-154835626D01*
X100434374Y-152324768D01*
X99926168Y-151308356D01*
X99792068Y-150749791D01*
X99720000Y-149834074D01*
X99720000Y-149551229D01*
X102275000Y-149551229D01*
X102275000Y-150168771D01*
X102395476Y-150774446D01*
X102631799Y-151344979D01*
X102974886Y-151858446D01*
X103411554Y-152295114D01*
X103925021Y-152638201D01*
X104495554Y-152874524D01*
X105101229Y-152995000D01*
X105718771Y-152995000D01*
X106324446Y-152874524D01*
X106894979Y-152638201D01*
X107408446Y-152295114D01*
X107845114Y-151858446D01*
X108188201Y-151344979D01*
X108424524Y-150774446D01*
X108545000Y-150168771D01*
X108545000Y-149551229D01*
X146090000Y-149551229D01*
X146090000Y-150168771D01*
X146210476Y-150774446D01*
X146446799Y-151344979D01*
X146789886Y-151858446D01*
X147226554Y-152295114D01*
X147740021Y-152638201D01*
X148310554Y-152874524D01*
X148916229Y-152995000D01*
X149533771Y-152995000D01*
X150139446Y-152874524D01*
X150709979Y-152638201D01*
X151223446Y-152295114D01*
X151660114Y-151858446D01*
X152003201Y-151344979D01*
X152239524Y-150774446D01*
X152360000Y-150168771D01*
X152360000Y-149551229D01*
X189905000Y-149551229D01*
X189905000Y-150168771D01*
X190025476Y-150774446D01*
X190261799Y-151344979D01*
X190604886Y-151858446D01*
X191041554Y-152295114D01*
X191555021Y-152638201D01*
X192125554Y-152874524D01*
X192731229Y-152995000D01*
X193348771Y-152995000D01*
X193954446Y-152874524D01*
X194524979Y-152638201D01*
X195038446Y-152295114D01*
X195475114Y-151858446D01*
X195818201Y-151344979D01*
X196054524Y-150774446D01*
X196175000Y-150168771D01*
X196175000Y-149551229D01*
X196054524Y-148945554D01*
X195818201Y-148375021D01*
X195475114Y-147861554D01*
X195038446Y-147424886D01*
X194524979Y-147081799D01*
X193954446Y-146845476D01*
X193348771Y-146725000D01*
X192731229Y-146725000D01*
X192125554Y-146845476D01*
X191555021Y-147081799D01*
X191041554Y-147424886D01*
X190604886Y-147861554D01*
X190261799Y-148375021D01*
X190025476Y-148945554D01*
X189905000Y-149551229D01*
X152360000Y-149551229D01*
X152239524Y-148945554D01*
X152003201Y-148375021D01*
X151660114Y-147861554D01*
X151223446Y-147424886D01*
X150709979Y-147081799D01*
X150139446Y-146845476D01*
X149533771Y-146725000D01*
X148916229Y-146725000D01*
X148310554Y-146845476D01*
X147740021Y-147081799D01*
X147226554Y-147424886D01*
X146789886Y-147861554D01*
X146446799Y-148375021D01*
X146210476Y-148945554D01*
X146090000Y-149551229D01*
X108545000Y-149551229D01*
X108424524Y-148945554D01*
X108188201Y-148375021D01*
X107845114Y-147861554D01*
X107408446Y-147424886D01*
X106894979Y-147081799D01*
X106324446Y-146845476D01*
X105718771Y-146725000D01*
X105101229Y-146725000D01*
X104495554Y-146845476D01*
X103925021Y-147081799D01*
X103411554Y-147424886D01*
X102974886Y-147861554D01*
X102631799Y-148375021D01*
X102395476Y-148945554D01*
X102275000Y-149551229D01*
X99720000Y-149551229D01*
X99720000Y-127620000D01*
X112951638Y-127620000D01*
X112955000Y-127654135D01*
X112955001Y-141585855D01*
X112951638Y-141620000D01*
X112965057Y-141756244D01*
X113004798Y-141887252D01*
X113069333Y-142007989D01*
X113156183Y-142113817D01*
X113262011Y-142200667D01*
X113382748Y-142265202D01*
X113513756Y-142304943D01*
X113615865Y-142315000D01*
X113615866Y-142315000D01*
X113650000Y-142318362D01*
X113684135Y-142315000D01*
X127615865Y-142315000D01*
X127650000Y-142318362D01*
X127684134Y-142315000D01*
X127684135Y-142315000D01*
X127786244Y-142304943D01*
X127917252Y-142265202D01*
X128037989Y-142200667D01*
X128143817Y-142113817D01*
X128230667Y-142007989D01*
X128295202Y-141887252D01*
X128334943Y-141756244D01*
X128348362Y-141620000D01*
X128345000Y-141585865D01*
X128345000Y-127654135D01*
X128348362Y-127620000D01*
X132001638Y-127620000D01*
X132005000Y-127654135D01*
X132005001Y-141585855D01*
X132001638Y-141620000D01*
X132015057Y-141756244D01*
X132054798Y-141887252D01*
X132119333Y-142007989D01*
X132206183Y-142113817D01*
X132312011Y-142200667D01*
X132432748Y-142265202D01*
X132563756Y-142304943D01*
X132665865Y-142315000D01*
X132665866Y-142315000D01*
X132700000Y-142318362D01*
X132734135Y-142315000D01*
X146665865Y-142315000D01*
X146700000Y-142318362D01*
X146734134Y-142315000D01*
X146734135Y-142315000D01*
X146836244Y-142304943D01*
X146967252Y-142265202D01*
X147087989Y-142200667D01*
X147193817Y-142113817D01*
X147280667Y-142007989D01*
X147345202Y-141887252D01*
X147384943Y-141756244D01*
X147398362Y-141620000D01*
X147395000Y-141585865D01*
X147395000Y-127654135D01*
X147398362Y-127620000D01*
X151051638Y-127620000D01*
X151055000Y-127654135D01*
X151055001Y-141585855D01*
X151051638Y-141620000D01*
X151065057Y-141756244D01*
X151104798Y-141887252D01*
X151169333Y-142007989D01*
X151256183Y-142113817D01*
X151362011Y-142200667D01*
X151482748Y-142265202D01*
X151613756Y-142304943D01*
X151715865Y-142315000D01*
X151715866Y-142315000D01*
X151750000Y-142318362D01*
X151784135Y-142315000D01*
X165715865Y-142315000D01*
X165750000Y-142318362D01*
X165784134Y-142315000D01*
X165784135Y-142315000D01*
X165886244Y-142304943D01*
X166017252Y-142265202D01*
X166137989Y-142200667D01*
X166243817Y-142113817D01*
X166330667Y-142007989D01*
X166395202Y-141887252D01*
X166434943Y-141756244D01*
X166448362Y-141620000D01*
X166445000Y-141585865D01*
X166445000Y-127654135D01*
X166448362Y-127620000D01*
X170101638Y-127620000D01*
X170105000Y-127654135D01*
X170105001Y-141585855D01*
X170101638Y-141620000D01*
X170115057Y-141756244D01*
X170154798Y-141887252D01*
X170219333Y-142007989D01*
X170306183Y-142113817D01*
X170412011Y-142200667D01*
X170532748Y-142265202D01*
X170663756Y-142304943D01*
X170765865Y-142315000D01*
X170765866Y-142315000D01*
X170800000Y-142318362D01*
X170834135Y-142315000D01*
X184765865Y-142315000D01*
X184800000Y-142318362D01*
X184834134Y-142315000D01*
X184834135Y-142315000D01*
X184936244Y-142304943D01*
X185067252Y-142265202D01*
X185187989Y-142200667D01*
X185293817Y-142113817D01*
X185380667Y-142007989D01*
X185445202Y-141887252D01*
X185484943Y-141756244D01*
X185498362Y-141620000D01*
X185495000Y-141585865D01*
X185495000Y-127654135D01*
X185498362Y-127620000D01*
X185484943Y-127483756D01*
X185445202Y-127352748D01*
X185380667Y-127232011D01*
X185293817Y-127126183D01*
X185187989Y-127039333D01*
X185067252Y-126974798D01*
X184936244Y-126935057D01*
X184834135Y-126925000D01*
X184800000Y-126921638D01*
X184765866Y-126925000D01*
X170834134Y-126925000D01*
X170800000Y-126921638D01*
X170765865Y-126925000D01*
X170663756Y-126935057D01*
X170532748Y-126974798D01*
X170412011Y-127039333D01*
X170306183Y-127126183D01*
X170219333Y-127232011D01*
X170154798Y-127352748D01*
X170115057Y-127483756D01*
X170101638Y-127620000D01*
X166448362Y-127620000D01*
X166434943Y-127483756D01*
X166395202Y-127352748D01*
X166330667Y-127232011D01*
X166243817Y-127126183D01*
X166137989Y-127039333D01*
X166017252Y-126974798D01*
X165886244Y-126935057D01*
X165784135Y-126925000D01*
X165750000Y-126921638D01*
X165715866Y-126925000D01*
X151784134Y-126925000D01*
X151750000Y-126921638D01*
X151715865Y-126925000D01*
X151613756Y-126935057D01*
X151482748Y-126974798D01*
X151362011Y-127039333D01*
X151256183Y-127126183D01*
X151169333Y-127232011D01*
X151104798Y-127352748D01*
X151065057Y-127483756D01*
X151051638Y-127620000D01*
X147398362Y-127620000D01*
X147384943Y-127483756D01*
X147345202Y-127352748D01*
X147280667Y-127232011D01*
X147193817Y-127126183D01*
X147087989Y-127039333D01*
X146967252Y-126974798D01*
X146836244Y-126935057D01*
X146734135Y-126925000D01*
X146700000Y-126921638D01*
X146665866Y-126925000D01*
X132734134Y-126925000D01*
X132700000Y-126921638D01*
X132665865Y-126925000D01*
X132563756Y-126935057D01*
X132432748Y-126974798D01*
X132312011Y-127039333D01*
X132206183Y-127126183D01*
X132119333Y-127232011D01*
X132054798Y-127352748D01*
X132015057Y-127483756D01*
X132001638Y-127620000D01*
X128348362Y-127620000D01*
X128334943Y-127483756D01*
X128295202Y-127352748D01*
X128230667Y-127232011D01*
X128143817Y-127126183D01*
X128037989Y-127039333D01*
X127917252Y-126974798D01*
X127786244Y-126935057D01*
X127684135Y-126925000D01*
X127650000Y-126921638D01*
X127615866Y-126925000D01*
X113684134Y-126925000D01*
X113650000Y-126921638D01*
X113615865Y-126925000D01*
X113513756Y-126935057D01*
X113382748Y-126974798D01*
X113262011Y-127039333D01*
X113156183Y-127126183D01*
X113069333Y-127232011D01*
X113004798Y-127352748D01*
X112965057Y-127483756D01*
X112951638Y-127620000D01*
X99720000Y-127620000D01*
X99720000Y-108570000D01*
X112951638Y-108570000D01*
X112955000Y-108604135D01*
X112955001Y-122535855D01*
X112951638Y-122570000D01*
X112965057Y-122706244D01*
X113004798Y-122837252D01*
X113069333Y-122957989D01*
X113156183Y-123063817D01*
X113262011Y-123150667D01*
X113382748Y-123215202D01*
X113513756Y-123254943D01*
X113615865Y-123265000D01*
X113615866Y-123265000D01*
X113650000Y-123268362D01*
X113684135Y-123265000D01*
X127615865Y-123265000D01*
X127650000Y-123268362D01*
X127684134Y-123265000D01*
X127684135Y-123265000D01*
X127786244Y-123254943D01*
X127917252Y-123215202D01*
X128037989Y-123150667D01*
X128143817Y-123063817D01*
X128230667Y-122957989D01*
X128295202Y-122837252D01*
X128334943Y-122706244D01*
X128348362Y-122570000D01*
X128345000Y-122535865D01*
X128345000Y-108604135D01*
X128348362Y-108570000D01*
X132001638Y-108570000D01*
X132005000Y-108604135D01*
X132005001Y-122535855D01*
X132001638Y-122570000D01*
X132015057Y-122706244D01*
X132054798Y-122837252D01*
X132119333Y-122957989D01*
X132206183Y-123063817D01*
X132312011Y-123150667D01*
X132432748Y-123215202D01*
X132563756Y-123254943D01*
X132665865Y-123265000D01*
X132665866Y-123265000D01*
X132700000Y-123268362D01*
X132734135Y-123265000D01*
X146665865Y-123265000D01*
X146700000Y-123268362D01*
X146734134Y-123265000D01*
X146734135Y-123265000D01*
X146836244Y-123254943D01*
X146967252Y-123215202D01*
X147087989Y-123150667D01*
X147193817Y-123063817D01*
X147280667Y-122957989D01*
X147345202Y-122837252D01*
X147384943Y-122706244D01*
X147398362Y-122570000D01*
X147395000Y-122535865D01*
X147395000Y-108604135D01*
X147398362Y-108570000D01*
X151051638Y-108570000D01*
X151055000Y-108604135D01*
X151055001Y-122535855D01*
X151051638Y-122570000D01*
X151065057Y-122706244D01*
X151104798Y-122837252D01*
X151169333Y-122957989D01*
X151256183Y-123063817D01*
X151362011Y-123150667D01*
X151482748Y-123215202D01*
X151613756Y-123254943D01*
X151715865Y-123265000D01*
X151715866Y-123265000D01*
X151750000Y-123268362D01*
X151784135Y-123265000D01*
X165715865Y-123265000D01*
X165750000Y-123268362D01*
X165784134Y-123265000D01*
X165784135Y-123265000D01*
X165886244Y-123254943D01*
X166017252Y-123215202D01*
X166137989Y-123150667D01*
X166243817Y-123063817D01*
X166330667Y-122957989D01*
X166395202Y-122837252D01*
X166434943Y-122706244D01*
X166448362Y-122570000D01*
X166445000Y-122535865D01*
X166445000Y-108604135D01*
X166448362Y-108570000D01*
X170101638Y-108570000D01*
X170105000Y-108604135D01*
X170105001Y-122535855D01*
X170101638Y-122570000D01*
X170115057Y-122706244D01*
X170154798Y-122837252D01*
X170219333Y-122957989D01*
X170306183Y-123063817D01*
X170412011Y-123150667D01*
X170532748Y-123215202D01*
X170663756Y-123254943D01*
X170765865Y-123265000D01*
X170765866Y-123265000D01*
X170800000Y-123268362D01*
X170834135Y-123265000D01*
X184765865Y-123265000D01*
X184800000Y-123268362D01*
X184834134Y-123265000D01*
X184834135Y-123265000D01*
X184936244Y-123254943D01*
X185067252Y-123215202D01*
X185187989Y-123150667D01*
X185293817Y-123063817D01*
X185380667Y-122957989D01*
X185445202Y-122837252D01*
X185484943Y-122706244D01*
X185498362Y-122570000D01*
X185495000Y-122535865D01*
X185495000Y-108604135D01*
X185498362Y-108570000D01*
X185484943Y-108433756D01*
X185445202Y-108302748D01*
X185380667Y-108182011D01*
X185293817Y-108076183D01*
X185187989Y-107989333D01*
X185067252Y-107924798D01*
X184936244Y-107885057D01*
X184834135Y-107875000D01*
X184800000Y-107871638D01*
X184765866Y-107875000D01*
X170834134Y-107875000D01*
X170800000Y-107871638D01*
X170765865Y-107875000D01*
X170663756Y-107885057D01*
X170532748Y-107924798D01*
X170412011Y-107989333D01*
X170306183Y-108076183D01*
X170219333Y-108182011D01*
X170154798Y-108302748D01*
X170115057Y-108433756D01*
X170101638Y-108570000D01*
X166448362Y-108570000D01*
X166434943Y-108433756D01*
X166395202Y-108302748D01*
X166330667Y-108182011D01*
X166243817Y-108076183D01*
X166137989Y-107989333D01*
X166017252Y-107924798D01*
X165886244Y-107885057D01*
X165784135Y-107875000D01*
X165750000Y-107871638D01*
X165715866Y-107875000D01*
X151784134Y-107875000D01*
X151750000Y-107871638D01*
X151715865Y-107875000D01*
X151613756Y-107885057D01*
X151482748Y-107924798D01*
X151362011Y-107989333D01*
X151256183Y-108076183D01*
X151169333Y-108182011D01*
X151104798Y-108302748D01*
X151065057Y-108433756D01*
X151051638Y-108570000D01*
X147398362Y-108570000D01*
X147384943Y-108433756D01*
X147345202Y-108302748D01*
X147280667Y-108182011D01*
X147193817Y-108076183D01*
X147087989Y-107989333D01*
X146967252Y-107924798D01*
X146836244Y-107885057D01*
X146734135Y-107875000D01*
X146700000Y-107871638D01*
X146665866Y-107875000D01*
X132734134Y-107875000D01*
X132700000Y-107871638D01*
X132665865Y-107875000D01*
X132563756Y-107885057D01*
X132432748Y-107924798D01*
X132312011Y-107989333D01*
X132206183Y-108076183D01*
X132119333Y-108182011D01*
X132054798Y-108302748D01*
X132015057Y-108433756D01*
X132001638Y-108570000D01*
X128348362Y-108570000D01*
X128334943Y-108433756D01*
X128295202Y-108302748D01*
X128230667Y-108182011D01*
X128143817Y-108076183D01*
X128037989Y-107989333D01*
X127917252Y-107924798D01*
X127786244Y-107885057D01*
X127684135Y-107875000D01*
X127650000Y-107871638D01*
X127615866Y-107875000D01*
X113684134Y-107875000D01*
X113650000Y-107871638D01*
X113615865Y-107875000D01*
X113513756Y-107885057D01*
X113382748Y-107924798D01*
X113262011Y-107989333D01*
X113156183Y-108076183D01*
X113069333Y-108182011D01*
X113004798Y-108302748D01*
X112965057Y-108433756D01*
X112951638Y-108570000D01*
X99720000Y-108570000D01*
X99720000Y-96211229D01*
X102275000Y-96211229D01*
X102275000Y-96828771D01*
X102395476Y-97434446D01*
X102631799Y-98004979D01*
X102974886Y-98518446D01*
X103411554Y-98955114D01*
X103925021Y-99298201D01*
X104495554Y-99534524D01*
X105101229Y-99655000D01*
X105718771Y-99655000D01*
X106324446Y-99534524D01*
X106894979Y-99298201D01*
X107408446Y-98955114D01*
X107845114Y-98518446D01*
X108188201Y-98004979D01*
X108424524Y-97434446D01*
X108545000Y-96828771D01*
X108545000Y-96211229D01*
X108424524Y-95605554D01*
X108188201Y-95035021D01*
X107845114Y-94521554D01*
X107408446Y-94084886D01*
X106894979Y-93741799D01*
X106324446Y-93505476D01*
X105718771Y-93385000D01*
X105101229Y-93385000D01*
X104495554Y-93505476D01*
X103925021Y-93741799D01*
X103411554Y-94084886D01*
X102974886Y-94521554D01*
X102631799Y-95035021D01*
X102395476Y-95605554D01*
X102275000Y-96211229D01*
X99720000Y-96211229D01*
X99720000Y-89520000D01*
X112951638Y-89520000D01*
X112955000Y-89554135D01*
X112955001Y-103485855D01*
X112951638Y-103520000D01*
X112965057Y-103656244D01*
X113004798Y-103787252D01*
X113069333Y-103907989D01*
X113156183Y-104013817D01*
X113262011Y-104100667D01*
X113382748Y-104165202D01*
X113513756Y-104204943D01*
X113615865Y-104215000D01*
X113615866Y-104215000D01*
X113650000Y-104218362D01*
X113684135Y-104215000D01*
X127615865Y-104215000D01*
X127650000Y-104218362D01*
X127684134Y-104215000D01*
X127684135Y-104215000D01*
X127786244Y-104204943D01*
X127917252Y-104165202D01*
X128037989Y-104100667D01*
X128143817Y-104013817D01*
X128230667Y-103907989D01*
X128295202Y-103787252D01*
X128334943Y-103656244D01*
X128348362Y-103520000D01*
X128345000Y-103485865D01*
X128345000Y-89554135D01*
X128348362Y-89520000D01*
X132001638Y-89520000D01*
X132005000Y-89554135D01*
X132005001Y-103485855D01*
X132001638Y-103520000D01*
X132015057Y-103656244D01*
X132054798Y-103787252D01*
X132119333Y-103907989D01*
X132206183Y-104013817D01*
X132312011Y-104100667D01*
X132432748Y-104165202D01*
X132563756Y-104204943D01*
X132665865Y-104215000D01*
X132665866Y-104215000D01*
X132700000Y-104218362D01*
X132734135Y-104215000D01*
X146665865Y-104215000D01*
X146700000Y-104218362D01*
X146734134Y-104215000D01*
X146734135Y-104215000D01*
X146836244Y-104204943D01*
X146967252Y-104165202D01*
X147087989Y-104100667D01*
X147193817Y-104013817D01*
X147280667Y-103907989D01*
X147345202Y-103787252D01*
X147384943Y-103656244D01*
X147398362Y-103520000D01*
X147395000Y-103485865D01*
X147395000Y-89554135D01*
X147398362Y-89520000D01*
X151051638Y-89520000D01*
X151055000Y-89554135D01*
X151055001Y-103485855D01*
X151051638Y-103520000D01*
X151065057Y-103656244D01*
X151104798Y-103787252D01*
X151169333Y-103907989D01*
X151256183Y-104013817D01*
X151362011Y-104100667D01*
X151482748Y-104165202D01*
X151613756Y-104204943D01*
X151715865Y-104215000D01*
X151715866Y-104215000D01*
X151750000Y-104218362D01*
X151784135Y-104215000D01*
X165715865Y-104215000D01*
X165750000Y-104218362D01*
X165784134Y-104215000D01*
X165784135Y-104215000D01*
X165886244Y-104204943D01*
X166017252Y-104165202D01*
X166137989Y-104100667D01*
X166243817Y-104013817D01*
X166330667Y-103907989D01*
X166395202Y-103787252D01*
X166434943Y-103656244D01*
X166448362Y-103520000D01*
X166445000Y-103485865D01*
X166445000Y-89554135D01*
X166448362Y-89520000D01*
X170101638Y-89520000D01*
X170105000Y-89554135D01*
X170105001Y-103485855D01*
X170101638Y-103520000D01*
X170115057Y-103656244D01*
X170154798Y-103787252D01*
X170219333Y-103907989D01*
X170306183Y-104013817D01*
X170412011Y-104100667D01*
X170532748Y-104165202D01*
X170663756Y-104204943D01*
X170765865Y-104215000D01*
X170765866Y-104215000D01*
X170800000Y-104218362D01*
X170834135Y-104215000D01*
X184765865Y-104215000D01*
X184800000Y-104218362D01*
X184834134Y-104215000D01*
X184834135Y-104215000D01*
X184936244Y-104204943D01*
X185067252Y-104165202D01*
X185187989Y-104100667D01*
X185293817Y-104013817D01*
X185380667Y-103907989D01*
X185445202Y-103787252D01*
X185484943Y-103656244D01*
X185498362Y-103520000D01*
X185495000Y-103485865D01*
X185495000Y-96211229D01*
X189905000Y-96211229D01*
X189905000Y-96828771D01*
X190025476Y-97434446D01*
X190261799Y-98004979D01*
X190604886Y-98518446D01*
X191041554Y-98955114D01*
X191555021Y-99298201D01*
X192125554Y-99534524D01*
X192731229Y-99655000D01*
X193348771Y-99655000D01*
X193954446Y-99534524D01*
X194524979Y-99298201D01*
X195038446Y-98955114D01*
X195475114Y-98518446D01*
X195818201Y-98004979D01*
X196054524Y-97434446D01*
X196175000Y-96828771D01*
X196175000Y-96211229D01*
X196054524Y-95605554D01*
X195818201Y-95035021D01*
X195475114Y-94521554D01*
X195038446Y-94084886D01*
X194524979Y-93741799D01*
X193954446Y-93505476D01*
X193348771Y-93385000D01*
X192731229Y-93385000D01*
X192125554Y-93505476D01*
X191555021Y-93741799D01*
X191041554Y-94084886D01*
X190604886Y-94521554D01*
X190261799Y-95035021D01*
X190025476Y-95605554D01*
X189905000Y-96211229D01*
X185495000Y-96211229D01*
X185495000Y-89554135D01*
X185498362Y-89520000D01*
X185484943Y-89383756D01*
X185445202Y-89252748D01*
X185380667Y-89132011D01*
X185293817Y-89026183D01*
X185187989Y-88939333D01*
X185067252Y-88874798D01*
X184936244Y-88835057D01*
X184834135Y-88825000D01*
X184800000Y-88821638D01*
X184765866Y-88825000D01*
X170834134Y-88825000D01*
X170800000Y-88821638D01*
X170765865Y-88825000D01*
X170663756Y-88835057D01*
X170532748Y-88874798D01*
X170412011Y-88939333D01*
X170306183Y-89026183D01*
X170219333Y-89132011D01*
X170154798Y-89252748D01*
X170115057Y-89383756D01*
X170101638Y-89520000D01*
X166448362Y-89520000D01*
X166434943Y-89383756D01*
X166395202Y-89252748D01*
X166330667Y-89132011D01*
X166243817Y-89026183D01*
X166137989Y-88939333D01*
X166017252Y-88874798D01*
X165886244Y-88835057D01*
X165784135Y-88825000D01*
X165750000Y-88821638D01*
X165715866Y-88825000D01*
X151784134Y-88825000D01*
X151750000Y-88821638D01*
X151715865Y-88825000D01*
X151613756Y-88835057D01*
X151482748Y-88874798D01*
X151362011Y-88939333D01*
X151256183Y-89026183D01*
X151169333Y-89132011D01*
X151104798Y-89252748D01*
X151065057Y-89383756D01*
X151051638Y-89520000D01*
X147398362Y-89520000D01*
X147384943Y-89383756D01*
X147345202Y-89252748D01*
X147280667Y-89132011D01*
X147193817Y-89026183D01*
X147087989Y-88939333D01*
X146967252Y-88874798D01*
X146836244Y-88835057D01*
X146734135Y-88825000D01*
X146700000Y-88821638D01*
X146665866Y-88825000D01*
X132734134Y-88825000D01*
X132700000Y-88821638D01*
X132665865Y-88825000D01*
X132563756Y-88835057D01*
X132432748Y-88874798D01*
X132312011Y-88939333D01*
X132206183Y-89026183D01*
X132119333Y-89132011D01*
X132054798Y-89252748D01*
X132015057Y-89383756D01*
X132001638Y-89520000D01*
X128348362Y-89520000D01*
X128334943Y-89383756D01*
X128295202Y-89252748D01*
X128230667Y-89132011D01*
X128143817Y-89026183D01*
X128037989Y-88939333D01*
X127917252Y-88874798D01*
X127786244Y-88835057D01*
X127684135Y-88825000D01*
X127650000Y-88821638D01*
X127615866Y-88825000D01*
X113684134Y-88825000D01*
X113650000Y-88821638D01*
X113615865Y-88825000D01*
X113513756Y-88835057D01*
X113382748Y-88874798D01*
X113262011Y-88939333D01*
X113156183Y-89026183D01*
X113069333Y-89132011D01*
X113004798Y-89252748D01*
X112965057Y-89383756D01*
X112951638Y-89520000D01*
X99720000Y-89520000D01*
X99720000Y-70470000D01*
X112951638Y-70470000D01*
X112955000Y-70504135D01*
X112955001Y-84435855D01*
X112951638Y-84470000D01*
X112965057Y-84606244D01*
X113004798Y-84737252D01*
X113069333Y-84857989D01*
X113156183Y-84963817D01*
X113262011Y-85050667D01*
X113382748Y-85115202D01*
X113513756Y-85154943D01*
X113615865Y-85165000D01*
X113615866Y-85165000D01*
X113650000Y-85168362D01*
X113684135Y-85165000D01*
X127615865Y-85165000D01*
X127650000Y-85168362D01*
X127684134Y-85165000D01*
X127684135Y-85165000D01*
X127786244Y-85154943D01*
X127917252Y-85115202D01*
X128037989Y-85050667D01*
X128143817Y-84963817D01*
X128230667Y-84857989D01*
X128295202Y-84737252D01*
X128334943Y-84606244D01*
X128348362Y-84470000D01*
X128345000Y-84435865D01*
X128345000Y-70504135D01*
X128348362Y-70470000D01*
X132001638Y-70470000D01*
X132005000Y-70504135D01*
X132005001Y-84435855D01*
X132001638Y-84470000D01*
X132015057Y-84606244D01*
X132054798Y-84737252D01*
X132119333Y-84857989D01*
X132206183Y-84963817D01*
X132312011Y-85050667D01*
X132432748Y-85115202D01*
X132563756Y-85154943D01*
X132665865Y-85165000D01*
X132665866Y-85165000D01*
X132700000Y-85168362D01*
X132734135Y-85165000D01*
X146665865Y-85165000D01*
X146700000Y-85168362D01*
X146734134Y-85165000D01*
X146734135Y-85165000D01*
X146836244Y-85154943D01*
X146967252Y-85115202D01*
X147087989Y-85050667D01*
X147193817Y-84963817D01*
X147280667Y-84857989D01*
X147345202Y-84737252D01*
X147384943Y-84606244D01*
X147398362Y-84470000D01*
X147395000Y-84435865D01*
X147395000Y-70504135D01*
X147398362Y-70470000D01*
X151051638Y-70470000D01*
X151055000Y-70504135D01*
X151055001Y-84435855D01*
X151051638Y-84470000D01*
X151065057Y-84606244D01*
X151104798Y-84737252D01*
X151169333Y-84857989D01*
X151256183Y-84963817D01*
X151362011Y-85050667D01*
X151482748Y-85115202D01*
X151613756Y-85154943D01*
X151715865Y-85165000D01*
X151715866Y-85165000D01*
X151750000Y-85168362D01*
X151784135Y-85165000D01*
X165715865Y-85165000D01*
X165750000Y-85168362D01*
X165784134Y-85165000D01*
X165784135Y-85165000D01*
X165886244Y-85154943D01*
X166017252Y-85115202D01*
X166137989Y-85050667D01*
X166243817Y-84963817D01*
X166330667Y-84857989D01*
X166395202Y-84737252D01*
X166434943Y-84606244D01*
X166448362Y-84470000D01*
X166445000Y-84435865D01*
X166445000Y-70504135D01*
X166448362Y-70470000D01*
X170101638Y-70470000D01*
X170105000Y-70504135D01*
X170105001Y-84435855D01*
X170101638Y-84470000D01*
X170115057Y-84606244D01*
X170154798Y-84737252D01*
X170219333Y-84857989D01*
X170306183Y-84963817D01*
X170412011Y-85050667D01*
X170532748Y-85115202D01*
X170663756Y-85154943D01*
X170765865Y-85165000D01*
X170765866Y-85165000D01*
X170800000Y-85168362D01*
X170834135Y-85165000D01*
X184765865Y-85165000D01*
X184800000Y-85168362D01*
X184834134Y-85165000D01*
X184834135Y-85165000D01*
X184936244Y-85154943D01*
X185067252Y-85115202D01*
X185187989Y-85050667D01*
X185293817Y-84963817D01*
X185380667Y-84857989D01*
X185445202Y-84737252D01*
X185484943Y-84606244D01*
X185498362Y-84470000D01*
X185495000Y-84435865D01*
X185495000Y-70504135D01*
X185498362Y-70470000D01*
X185484943Y-70333756D01*
X185445202Y-70202748D01*
X185380667Y-70082011D01*
X185293817Y-69976183D01*
X185187989Y-69889333D01*
X185067252Y-69824798D01*
X184936244Y-69785057D01*
X184834135Y-69775000D01*
X184800000Y-69771638D01*
X184765866Y-69775000D01*
X170834134Y-69775000D01*
X170800000Y-69771638D01*
X170765865Y-69775000D01*
X170663756Y-69785057D01*
X170532748Y-69824798D01*
X170412011Y-69889333D01*
X170306183Y-69976183D01*
X170219333Y-70082011D01*
X170154798Y-70202748D01*
X170115057Y-70333756D01*
X170101638Y-70470000D01*
X166448362Y-70470000D01*
X166434943Y-70333756D01*
X166395202Y-70202748D01*
X166330667Y-70082011D01*
X166243817Y-69976183D01*
X166137989Y-69889333D01*
X166017252Y-69824798D01*
X165886244Y-69785057D01*
X165784135Y-69775000D01*
X165750000Y-69771638D01*
X165715866Y-69775000D01*
X151784134Y-69775000D01*
X151750000Y-69771638D01*
X151715865Y-69775000D01*
X151613756Y-69785057D01*
X151482748Y-69824798D01*
X151362011Y-69889333D01*
X151256183Y-69976183D01*
X151169333Y-70082011D01*
X151104798Y-70202748D01*
X151065057Y-70333756D01*
X151051638Y-70470000D01*
X147398362Y-70470000D01*
X147384943Y-70333756D01*
X147345202Y-70202748D01*
X147280667Y-70082011D01*
X147193817Y-69976183D01*
X147087989Y-69889333D01*
X146967252Y-69824798D01*
X146836244Y-69785057D01*
X146734135Y-69775000D01*
X146700000Y-69771638D01*
X146665866Y-69775000D01*
X132734134Y-69775000D01*
X132700000Y-69771638D01*
X132665865Y-69775000D01*
X132563756Y-69785057D01*
X132432748Y-69824798D01*
X132312011Y-69889333D01*
X132206183Y-69976183D01*
X132119333Y-70082011D01*
X132054798Y-70202748D01*
X132015057Y-70333756D01*
X132001638Y-70470000D01*
X128348362Y-70470000D01*
X128334943Y-70333756D01*
X128295202Y-70202748D01*
X128230667Y-70082011D01*
X128143817Y-69976183D01*
X128037989Y-69889333D01*
X127917252Y-69824798D01*
X127786244Y-69785057D01*
X127684135Y-69775000D01*
X127650000Y-69771638D01*
X127615866Y-69775000D01*
X113684134Y-69775000D01*
X113650000Y-69771638D01*
X113615865Y-69775000D01*
X113513756Y-69785057D01*
X113382748Y-69824798D01*
X113262011Y-69889333D01*
X113156183Y-69976183D01*
X113069333Y-70082011D01*
X113004798Y-70202748D01*
X112965057Y-70333756D01*
X112951638Y-70470000D01*
X99720000Y-70470000D01*
X99720000Y-51420000D01*
X112951638Y-51420000D01*
X112955000Y-51454135D01*
X112955001Y-65385855D01*
X112951638Y-65420000D01*
X112965057Y-65556244D01*
X113004798Y-65687252D01*
X113069333Y-65807989D01*
X113156183Y-65913817D01*
X113262011Y-66000667D01*
X113382748Y-66065202D01*
X113513756Y-66104943D01*
X113615865Y-66115000D01*
X113615866Y-66115000D01*
X113650000Y-66118362D01*
X113684135Y-66115000D01*
X127615865Y-66115000D01*
X127650000Y-66118362D01*
X127684134Y-66115000D01*
X127684135Y-66115000D01*
X127786244Y-66104943D01*
X127917252Y-66065202D01*
X128037989Y-66000667D01*
X128143817Y-65913817D01*
X128230667Y-65807989D01*
X128295202Y-65687252D01*
X128334943Y-65556244D01*
X128348362Y-65420000D01*
X128345000Y-65385865D01*
X128345000Y-51454135D01*
X128348362Y-51420000D01*
X132001638Y-51420000D01*
X132005000Y-51454135D01*
X132005001Y-65385855D01*
X132001638Y-65420000D01*
X132015057Y-65556244D01*
X132054798Y-65687252D01*
X132119333Y-65807989D01*
X132206183Y-65913817D01*
X132312011Y-66000667D01*
X132432748Y-66065202D01*
X132563756Y-66104943D01*
X132665865Y-66115000D01*
X132665866Y-66115000D01*
X132700000Y-66118362D01*
X132734135Y-66115000D01*
X146665865Y-66115000D01*
X146700000Y-66118362D01*
X146734134Y-66115000D01*
X146734135Y-66115000D01*
X146836244Y-66104943D01*
X146967252Y-66065202D01*
X147087989Y-66000667D01*
X147193817Y-65913817D01*
X147280667Y-65807989D01*
X147345202Y-65687252D01*
X147384943Y-65556244D01*
X147398362Y-65420000D01*
X147395000Y-65385865D01*
X147395000Y-51454135D01*
X147398362Y-51420000D01*
X151051638Y-51420000D01*
X151055000Y-51454135D01*
X151055001Y-65385855D01*
X151051638Y-65420000D01*
X151065057Y-65556244D01*
X151104798Y-65687252D01*
X151169333Y-65807989D01*
X151256183Y-65913817D01*
X151362011Y-66000667D01*
X151482748Y-66065202D01*
X151613756Y-66104943D01*
X151715865Y-66115000D01*
X151715866Y-66115000D01*
X151750000Y-66118362D01*
X151784135Y-66115000D01*
X165715865Y-66115000D01*
X165750000Y-66118362D01*
X165784134Y-66115000D01*
X165784135Y-66115000D01*
X165886244Y-66104943D01*
X166017252Y-66065202D01*
X166137989Y-66000667D01*
X166243817Y-65913817D01*
X166330667Y-65807989D01*
X166395202Y-65687252D01*
X166434943Y-65556244D01*
X166448362Y-65420000D01*
X166445000Y-65385865D01*
X166445000Y-51454135D01*
X166448362Y-51420000D01*
X170101638Y-51420000D01*
X170105000Y-51454135D01*
X170105001Y-65385855D01*
X170101638Y-65420000D01*
X170115057Y-65556244D01*
X170154798Y-65687252D01*
X170219333Y-65807989D01*
X170306183Y-65913817D01*
X170412011Y-66000667D01*
X170532748Y-66065202D01*
X170663756Y-66104943D01*
X170765865Y-66115000D01*
X170765866Y-66115000D01*
X170800000Y-66118362D01*
X170834135Y-66115000D01*
X184765865Y-66115000D01*
X184800000Y-66118362D01*
X184834134Y-66115000D01*
X184834135Y-66115000D01*
X184936244Y-66104943D01*
X185067252Y-66065202D01*
X185187989Y-66000667D01*
X185293817Y-65913817D01*
X185380667Y-65807989D01*
X185445202Y-65687252D01*
X185484943Y-65556244D01*
X185498362Y-65420000D01*
X185495000Y-65385865D01*
X185495000Y-51454135D01*
X185498362Y-51420000D01*
X185484943Y-51283756D01*
X185445202Y-51152748D01*
X185380667Y-51032011D01*
X185293817Y-50926183D01*
X185187989Y-50839333D01*
X185067252Y-50774798D01*
X184936244Y-50735057D01*
X184834135Y-50725000D01*
X184800000Y-50721638D01*
X184765866Y-50725000D01*
X170834134Y-50725000D01*
X170800000Y-50721638D01*
X170765865Y-50725000D01*
X170663756Y-50735057D01*
X170532748Y-50774798D01*
X170412011Y-50839333D01*
X170306183Y-50926183D01*
X170219333Y-51032011D01*
X170154798Y-51152748D01*
X170115057Y-51283756D01*
X170101638Y-51420000D01*
X166448362Y-51420000D01*
X166434943Y-51283756D01*
X166395202Y-51152748D01*
X166330667Y-51032011D01*
X166243817Y-50926183D01*
X166137989Y-50839333D01*
X166017252Y-50774798D01*
X165886244Y-50735057D01*
X165784135Y-50725000D01*
X165750000Y-50721638D01*
X165715866Y-50725000D01*
X151784134Y-50725000D01*
X151750000Y-50721638D01*
X151715865Y-50725000D01*
X151613756Y-50735057D01*
X151482748Y-50774798D01*
X151362011Y-50839333D01*
X151256183Y-50926183D01*
X151169333Y-51032011D01*
X151104798Y-51152748D01*
X151065057Y-51283756D01*
X151051638Y-51420000D01*
X147398362Y-51420000D01*
X147384943Y-51283756D01*
X147345202Y-51152748D01*
X147280667Y-51032011D01*
X147193817Y-50926183D01*
X147087989Y-50839333D01*
X146967252Y-50774798D01*
X146836244Y-50735057D01*
X146734135Y-50725000D01*
X146700000Y-50721638D01*
X146665866Y-50725000D01*
X132734134Y-50725000D01*
X132700000Y-50721638D01*
X132665865Y-50725000D01*
X132563756Y-50735057D01*
X132432748Y-50774798D01*
X132312011Y-50839333D01*
X132206183Y-50926183D01*
X132119333Y-51032011D01*
X132054798Y-51152748D01*
X132015057Y-51283756D01*
X132001638Y-51420000D01*
X128348362Y-51420000D01*
X128334943Y-51283756D01*
X128295202Y-51152748D01*
X128230667Y-51032011D01*
X128143817Y-50926183D01*
X128037989Y-50839333D01*
X127917252Y-50774798D01*
X127786244Y-50735057D01*
X127684135Y-50725000D01*
X127650000Y-50721638D01*
X127615866Y-50725000D01*
X113684134Y-50725000D01*
X113650000Y-50721638D01*
X113615865Y-50725000D01*
X113513756Y-50735057D01*
X113382748Y-50774798D01*
X113262011Y-50839333D01*
X113156183Y-50926183D01*
X113069333Y-51032011D01*
X113004798Y-51152748D01*
X112965057Y-51283756D01*
X112951638Y-51420000D01*
X99720000Y-51420000D01*
X99720000Y-43205926D01*
X99746341Y-42871229D01*
X102275000Y-42871229D01*
X102275000Y-43488771D01*
X102395476Y-44094446D01*
X102631799Y-44664979D01*
X102974886Y-45178446D01*
X103411554Y-45615114D01*
X103925021Y-45958201D01*
X104495554Y-46194524D01*
X105101229Y-46315000D01*
X105718771Y-46315000D01*
X106324446Y-46194524D01*
X106894979Y-45958201D01*
X107408446Y-45615114D01*
X107845114Y-45178446D01*
X108188201Y-44664979D01*
X108424524Y-44094446D01*
X108545000Y-43488771D01*
X108545000Y-42871229D01*
X189905000Y-42871229D01*
X189905000Y-43488771D01*
X190025476Y-44094446D01*
X190261799Y-44664979D01*
X190604886Y-45178446D01*
X191041554Y-45615114D01*
X191555021Y-45958201D01*
X192125554Y-46194524D01*
X192731229Y-46315000D01*
X193348771Y-46315000D01*
X193954446Y-46194524D01*
X194524979Y-45958201D01*
X195038446Y-45615114D01*
X195475114Y-45178446D01*
X195818201Y-44664979D01*
X196054524Y-44094446D01*
X196175000Y-43488771D01*
X196175000Y-42871229D01*
X196054524Y-42265554D01*
X195818201Y-41695021D01*
X195475114Y-41181554D01*
X195038446Y-40744886D01*
X194524979Y-40401799D01*
X193954446Y-40165476D01*
X193348771Y-40045000D01*
X192731229Y-40045000D01*
X192125554Y-40165476D01*
X191555021Y-40401799D01*
X191041554Y-40744886D01*
X190604886Y-41181554D01*
X190261799Y-41695021D01*
X190025476Y-42265554D01*
X189905000Y-42871229D01*
X108545000Y-42871229D01*
X108424524Y-42265554D01*
X108188201Y-41695021D01*
X107845114Y-41181554D01*
X107408446Y-40744886D01*
X106894979Y-40401799D01*
X106324446Y-40165476D01*
X105718771Y-40045000D01*
X105101229Y-40045000D01*
X104495554Y-40165476D01*
X103925021Y-40401799D01*
X103411554Y-40744886D01*
X102974886Y-41181554D01*
X102631799Y-41695021D01*
X102395476Y-42265554D01*
X102275000Y-42871229D01*
X99746341Y-42871229D01*
X99792068Y-42290209D01*
X99926168Y-41731644D01*
X100434374Y-40715232D01*
X102945232Y-38204374D01*
X103961643Y-37696169D01*
X104520207Y-37562069D01*
X105435926Y-37490000D01*
X193014074Y-37490000D01*
X193929791Y-37562068D01*
G37*
X193929791Y-37562068D02*
X194488356Y-37696168D01*
X195504768Y-38204374D01*
X198015626Y-40715232D01*
X198523831Y-41731643D01*
X198657931Y-42290207D01*
X198730001Y-43205939D01*
X198730000Y-149834074D01*
X198657931Y-150749793D01*
X198523831Y-151308357D01*
X198015626Y-152324768D01*
X195504768Y-154835626D01*
X194488356Y-155343832D01*
X193929791Y-155477932D01*
X193014074Y-155550000D01*
X105435926Y-155550000D01*
X104520207Y-155477931D01*
X103961643Y-155343831D01*
X102945232Y-154835626D01*
X100434374Y-152324768D01*
X99926168Y-151308356D01*
X99792068Y-150749791D01*
X99720000Y-149834074D01*
X99720000Y-149551229D01*
X102275000Y-149551229D01*
X102275000Y-150168771D01*
X102395476Y-150774446D01*
X102631799Y-151344979D01*
X102974886Y-151858446D01*
X103411554Y-152295114D01*
X103925021Y-152638201D01*
X104495554Y-152874524D01*
X105101229Y-152995000D01*
X105718771Y-152995000D01*
X106324446Y-152874524D01*
X106894979Y-152638201D01*
X107408446Y-152295114D01*
X107845114Y-151858446D01*
X108188201Y-151344979D01*
X108424524Y-150774446D01*
X108545000Y-150168771D01*
X108545000Y-149551229D01*
X146090000Y-149551229D01*
X146090000Y-150168771D01*
X146210476Y-150774446D01*
X146446799Y-151344979D01*
X146789886Y-151858446D01*
X147226554Y-152295114D01*
X147740021Y-152638201D01*
X148310554Y-152874524D01*
X148916229Y-152995000D01*
X149533771Y-152995000D01*
X150139446Y-152874524D01*
X150709979Y-152638201D01*
X151223446Y-152295114D01*
X151660114Y-151858446D01*
X152003201Y-151344979D01*
X152239524Y-150774446D01*
X152360000Y-150168771D01*
X152360000Y-149551229D01*
X189905000Y-149551229D01*
X189905000Y-150168771D01*
X190025476Y-150774446D01*
X190261799Y-151344979D01*
X190604886Y-151858446D01*
X191041554Y-152295114D01*
X191555021Y-152638201D01*
X192125554Y-152874524D01*
X192731229Y-152995000D01*
X193348771Y-152995000D01*
X193954446Y-152874524D01*
X194524979Y-152638201D01*
X195038446Y-152295114D01*
X195475114Y-151858446D01*
X195818201Y-151344979D01*
X196054524Y-150774446D01*
X196175000Y-150168771D01*
X196175000Y-149551229D01*
X196054524Y-148945554D01*
X195818201Y-148375021D01*
X195475114Y-147861554D01*
X195038446Y-147424886D01*
X194524979Y-147081799D01*
X193954446Y-146845476D01*
X193348771Y-146725000D01*
X192731229Y-146725000D01*
X192125554Y-146845476D01*
X191555021Y-147081799D01*
X191041554Y-147424886D01*
X190604886Y-147861554D01*
X190261799Y-148375021D01*
X190025476Y-148945554D01*
X189905000Y-149551229D01*
X152360000Y-149551229D01*
X152239524Y-148945554D01*
X152003201Y-148375021D01*
X151660114Y-147861554D01*
X151223446Y-147424886D01*
X150709979Y-147081799D01*
X150139446Y-146845476D01*
X149533771Y-146725000D01*
X148916229Y-146725000D01*
X148310554Y-146845476D01*
X147740021Y-147081799D01*
X147226554Y-147424886D01*
X146789886Y-147861554D01*
X146446799Y-148375021D01*
X146210476Y-148945554D01*
X146090000Y-149551229D01*
X108545000Y-149551229D01*
X108424524Y-148945554D01*
X108188201Y-148375021D01*
X107845114Y-147861554D01*
X107408446Y-147424886D01*
X106894979Y-147081799D01*
X106324446Y-146845476D01*
X105718771Y-146725000D01*
X105101229Y-146725000D01*
X104495554Y-146845476D01*
X103925021Y-147081799D01*
X103411554Y-147424886D01*
X102974886Y-147861554D01*
X102631799Y-148375021D01*
X102395476Y-148945554D01*
X102275000Y-149551229D01*
X99720000Y-149551229D01*
X99720000Y-127620000D01*
X112951638Y-127620000D01*
X112955000Y-127654135D01*
X112955001Y-141585855D01*
X112951638Y-141620000D01*
X112965057Y-141756244D01*
X113004798Y-141887252D01*
X113069333Y-142007989D01*
X113156183Y-142113817D01*
X113262011Y-142200667D01*
X113382748Y-142265202D01*
X113513756Y-142304943D01*
X113615865Y-142315000D01*
X113615866Y-142315000D01*
X113650000Y-142318362D01*
X113684135Y-142315000D01*
X127615865Y-142315000D01*
X127650000Y-142318362D01*
X127684134Y-142315000D01*
X127684135Y-142315000D01*
X127786244Y-142304943D01*
X127917252Y-142265202D01*
X128037989Y-142200667D01*
X128143817Y-142113817D01*
X128230667Y-142007989D01*
X128295202Y-141887252D01*
X128334943Y-141756244D01*
X128348362Y-141620000D01*
X128345000Y-141585865D01*
X128345000Y-127654135D01*
X128348362Y-127620000D01*
X132001638Y-127620000D01*
X132005000Y-127654135D01*
X132005001Y-141585855D01*
X132001638Y-141620000D01*
X132015057Y-141756244D01*
X132054798Y-141887252D01*
X132119333Y-142007989D01*
X132206183Y-142113817D01*
X132312011Y-142200667D01*
X132432748Y-142265202D01*
X132563756Y-142304943D01*
X132665865Y-142315000D01*
X132665866Y-142315000D01*
X132700000Y-142318362D01*
X132734135Y-142315000D01*
X146665865Y-142315000D01*
X146700000Y-142318362D01*
X146734134Y-142315000D01*
X146734135Y-142315000D01*
X146836244Y-142304943D01*
X146967252Y-142265202D01*
X147087989Y-142200667D01*
X147193817Y-142113817D01*
X147280667Y-142007989D01*
X147345202Y-141887252D01*
X147384943Y-141756244D01*
X147398362Y-141620000D01*
X147395000Y-141585865D01*
X147395000Y-127654135D01*
X147398362Y-127620000D01*
X151051638Y-127620000D01*
X151055000Y-127654135D01*
X151055001Y-141585855D01*
X151051638Y-141620000D01*
X151065057Y-141756244D01*
X151104798Y-141887252D01*
X151169333Y-142007989D01*
X151256183Y-142113817D01*
X151362011Y-142200667D01*
X151482748Y-142265202D01*
X151613756Y-142304943D01*
X151715865Y-142315000D01*
X151715866Y-142315000D01*
X151750000Y-142318362D01*
X151784135Y-142315000D01*
X165715865Y-142315000D01*
X165750000Y-142318362D01*
X165784134Y-142315000D01*
X165784135Y-142315000D01*
X165886244Y-142304943D01*
X166017252Y-142265202D01*
X166137989Y-142200667D01*
X166243817Y-142113817D01*
X166330667Y-142007989D01*
X166395202Y-141887252D01*
X166434943Y-141756244D01*
X166448362Y-141620000D01*
X166445000Y-141585865D01*
X166445000Y-127654135D01*
X166448362Y-127620000D01*
X170101638Y-127620000D01*
X170105000Y-127654135D01*
X170105001Y-141585855D01*
X170101638Y-141620000D01*
X170115057Y-141756244D01*
X170154798Y-141887252D01*
X170219333Y-142007989D01*
X170306183Y-142113817D01*
X170412011Y-142200667D01*
X170532748Y-142265202D01*
X170663756Y-142304943D01*
X170765865Y-142315000D01*
X170765866Y-142315000D01*
X170800000Y-142318362D01*
X170834135Y-142315000D01*
X184765865Y-142315000D01*
X184800000Y-142318362D01*
X184834134Y-142315000D01*
X184834135Y-142315000D01*
X184936244Y-142304943D01*
X185067252Y-142265202D01*
X185187989Y-142200667D01*
X185293817Y-142113817D01*
X185380667Y-142007989D01*
X185445202Y-141887252D01*
X185484943Y-141756244D01*
X185498362Y-141620000D01*
X185495000Y-141585865D01*
X185495000Y-127654135D01*
X185498362Y-127620000D01*
X185484943Y-127483756D01*
X185445202Y-127352748D01*
X185380667Y-127232011D01*
X185293817Y-127126183D01*
X185187989Y-127039333D01*
X185067252Y-126974798D01*
X184936244Y-126935057D01*
X184834135Y-126925000D01*
X184800000Y-126921638D01*
X184765866Y-126925000D01*
X170834134Y-126925000D01*
X170800000Y-126921638D01*
X170765865Y-126925000D01*
X170663756Y-126935057D01*
X170532748Y-126974798D01*
X170412011Y-127039333D01*
X170306183Y-127126183D01*
X170219333Y-127232011D01*
X170154798Y-127352748D01*
X170115057Y-127483756D01*
X170101638Y-127620000D01*
X166448362Y-127620000D01*
X166434943Y-127483756D01*
X166395202Y-127352748D01*
X166330667Y-127232011D01*
X166243817Y-127126183D01*
X166137989Y-127039333D01*
X166017252Y-126974798D01*
X165886244Y-126935057D01*
X165784135Y-126925000D01*
X165750000Y-126921638D01*
X165715866Y-126925000D01*
X151784134Y-126925000D01*
X151750000Y-126921638D01*
X151715865Y-126925000D01*
X151613756Y-126935057D01*
X151482748Y-126974798D01*
X151362011Y-127039333D01*
X151256183Y-127126183D01*
X151169333Y-127232011D01*
X151104798Y-127352748D01*
X151065057Y-127483756D01*
X151051638Y-127620000D01*
X147398362Y-127620000D01*
X147384943Y-127483756D01*
X147345202Y-127352748D01*
X147280667Y-127232011D01*
X147193817Y-127126183D01*
X147087989Y-127039333D01*
X146967252Y-126974798D01*
X146836244Y-126935057D01*
X146734135Y-126925000D01*
X146700000Y-126921638D01*
X146665866Y-126925000D01*
X132734134Y-126925000D01*
X132700000Y-126921638D01*
X132665865Y-126925000D01*
X132563756Y-126935057D01*
X132432748Y-126974798D01*
X132312011Y-127039333D01*
X132206183Y-127126183D01*
X132119333Y-127232011D01*
X132054798Y-127352748D01*
X132015057Y-127483756D01*
X132001638Y-127620000D01*
X128348362Y-127620000D01*
X128334943Y-127483756D01*
X128295202Y-127352748D01*
X128230667Y-127232011D01*
X128143817Y-127126183D01*
X128037989Y-127039333D01*
X127917252Y-126974798D01*
X127786244Y-126935057D01*
X127684135Y-126925000D01*
X127650000Y-126921638D01*
X127615866Y-126925000D01*
X113684134Y-126925000D01*
X113650000Y-126921638D01*
X113615865Y-126925000D01*
X113513756Y-126935057D01*
X113382748Y-126974798D01*
X113262011Y-127039333D01*
X113156183Y-127126183D01*
X113069333Y-127232011D01*
X113004798Y-127352748D01*
X112965057Y-127483756D01*
X112951638Y-127620000D01*
X99720000Y-127620000D01*
X99720000Y-108570000D01*
X112951638Y-108570000D01*
X112955000Y-108604135D01*
X112955001Y-122535855D01*
X112951638Y-122570000D01*
X112965057Y-122706244D01*
X113004798Y-122837252D01*
X113069333Y-122957989D01*
X113156183Y-123063817D01*
X113262011Y-123150667D01*
X113382748Y-123215202D01*
X113513756Y-123254943D01*
X113615865Y-123265000D01*
X113615866Y-123265000D01*
X113650000Y-123268362D01*
X113684135Y-123265000D01*
X127615865Y-123265000D01*
X127650000Y-123268362D01*
X127684134Y-123265000D01*
X127684135Y-123265000D01*
X127786244Y-123254943D01*
X127917252Y-123215202D01*
X128037989Y-123150667D01*
X128143817Y-123063817D01*
X128230667Y-122957989D01*
X128295202Y-122837252D01*
X128334943Y-122706244D01*
X128348362Y-122570000D01*
X128345000Y-122535865D01*
X128345000Y-108604135D01*
X128348362Y-108570000D01*
X132001638Y-108570000D01*
X132005000Y-108604135D01*
X132005001Y-122535855D01*
X132001638Y-122570000D01*
X132015057Y-122706244D01*
X132054798Y-122837252D01*
X132119333Y-122957989D01*
X132206183Y-123063817D01*
X132312011Y-123150667D01*
X132432748Y-123215202D01*
X132563756Y-123254943D01*
X132665865Y-123265000D01*
X132665866Y-123265000D01*
X132700000Y-123268362D01*
X132734135Y-123265000D01*
X146665865Y-123265000D01*
X146700000Y-123268362D01*
X146734134Y-123265000D01*
X146734135Y-123265000D01*
X146836244Y-123254943D01*
X146967252Y-123215202D01*
X147087989Y-123150667D01*
X147193817Y-123063817D01*
X147280667Y-122957989D01*
X147345202Y-122837252D01*
X147384943Y-122706244D01*
X147398362Y-122570000D01*
X147395000Y-122535865D01*
X147395000Y-108604135D01*
X147398362Y-108570000D01*
X151051638Y-108570000D01*
X151055000Y-108604135D01*
X151055001Y-122535855D01*
X151051638Y-122570000D01*
X151065057Y-122706244D01*
X151104798Y-122837252D01*
X151169333Y-122957989D01*
X151256183Y-123063817D01*
X151362011Y-123150667D01*
X151482748Y-123215202D01*
X151613756Y-123254943D01*
X151715865Y-123265000D01*
X151715866Y-123265000D01*
X151750000Y-123268362D01*
X151784135Y-123265000D01*
X165715865Y-123265000D01*
X165750000Y-123268362D01*
X165784134Y-123265000D01*
X165784135Y-123265000D01*
X165886244Y-123254943D01*
X166017252Y-123215202D01*
X166137989Y-123150667D01*
X166243817Y-123063817D01*
X166330667Y-122957989D01*
X166395202Y-122837252D01*
X166434943Y-122706244D01*
X166448362Y-122570000D01*
X166445000Y-122535865D01*
X166445000Y-108604135D01*
X166448362Y-108570000D01*
X170101638Y-108570000D01*
X170105000Y-108604135D01*
X170105001Y-122535855D01*
X170101638Y-122570000D01*
X170115057Y-122706244D01*
X170154798Y-122837252D01*
X170219333Y-122957989D01*
X170306183Y-123063817D01*
X170412011Y-123150667D01*
X170532748Y-123215202D01*
X170663756Y-123254943D01*
X170765865Y-123265000D01*
X170765866Y-123265000D01*
X170800000Y-123268362D01*
X170834135Y-123265000D01*
X184765865Y-123265000D01*
X184800000Y-123268362D01*
X184834134Y-123265000D01*
X184834135Y-123265000D01*
X184936244Y-123254943D01*
X185067252Y-123215202D01*
X185187989Y-123150667D01*
X185293817Y-123063817D01*
X185380667Y-122957989D01*
X185445202Y-122837252D01*
X185484943Y-122706244D01*
X185498362Y-122570000D01*
X185495000Y-122535865D01*
X185495000Y-108604135D01*
X185498362Y-108570000D01*
X185484943Y-108433756D01*
X185445202Y-108302748D01*
X185380667Y-108182011D01*
X185293817Y-108076183D01*
X185187989Y-107989333D01*
X185067252Y-107924798D01*
X184936244Y-107885057D01*
X184834135Y-107875000D01*
X184800000Y-107871638D01*
X184765866Y-107875000D01*
X170834134Y-107875000D01*
X170800000Y-107871638D01*
X170765865Y-107875000D01*
X170663756Y-107885057D01*
X170532748Y-107924798D01*
X170412011Y-107989333D01*
X170306183Y-108076183D01*
X170219333Y-108182011D01*
X170154798Y-108302748D01*
X170115057Y-108433756D01*
X170101638Y-108570000D01*
X166448362Y-108570000D01*
X166434943Y-108433756D01*
X166395202Y-108302748D01*
X166330667Y-108182011D01*
X166243817Y-108076183D01*
X166137989Y-107989333D01*
X166017252Y-107924798D01*
X165886244Y-107885057D01*
X165784135Y-107875000D01*
X165750000Y-107871638D01*
X165715866Y-107875000D01*
X151784134Y-107875000D01*
X151750000Y-107871638D01*
X151715865Y-107875000D01*
X151613756Y-107885057D01*
X151482748Y-107924798D01*
X151362011Y-107989333D01*
X151256183Y-108076183D01*
X151169333Y-108182011D01*
X151104798Y-108302748D01*
X151065057Y-108433756D01*
X151051638Y-108570000D01*
X147398362Y-108570000D01*
X147384943Y-108433756D01*
X147345202Y-108302748D01*
X147280667Y-108182011D01*
X147193817Y-108076183D01*
X147087989Y-107989333D01*
X146967252Y-107924798D01*
X146836244Y-107885057D01*
X146734135Y-107875000D01*
X146700000Y-107871638D01*
X146665866Y-107875000D01*
X132734134Y-107875000D01*
X132700000Y-107871638D01*
X132665865Y-107875000D01*
X132563756Y-107885057D01*
X132432748Y-107924798D01*
X132312011Y-107989333D01*
X132206183Y-108076183D01*
X132119333Y-108182011D01*
X132054798Y-108302748D01*
X132015057Y-108433756D01*
X132001638Y-108570000D01*
X128348362Y-108570000D01*
X128334943Y-108433756D01*
X128295202Y-108302748D01*
X128230667Y-108182011D01*
X128143817Y-108076183D01*
X128037989Y-107989333D01*
X127917252Y-107924798D01*
X127786244Y-107885057D01*
X127684135Y-107875000D01*
X127650000Y-107871638D01*
X127615866Y-107875000D01*
X113684134Y-107875000D01*
X113650000Y-107871638D01*
X113615865Y-107875000D01*
X113513756Y-107885057D01*
X113382748Y-107924798D01*
X113262011Y-107989333D01*
X113156183Y-108076183D01*
X113069333Y-108182011D01*
X113004798Y-108302748D01*
X112965057Y-108433756D01*
X112951638Y-108570000D01*
X99720000Y-108570000D01*
X99720000Y-96211229D01*
X102275000Y-96211229D01*
X102275000Y-96828771D01*
X102395476Y-97434446D01*
X102631799Y-98004979D01*
X102974886Y-98518446D01*
X103411554Y-98955114D01*
X103925021Y-99298201D01*
X104495554Y-99534524D01*
X105101229Y-99655000D01*
X105718771Y-99655000D01*
X106324446Y-99534524D01*
X106894979Y-99298201D01*
X107408446Y-98955114D01*
X107845114Y-98518446D01*
X108188201Y-98004979D01*
X108424524Y-97434446D01*
X108545000Y-96828771D01*
X108545000Y-96211229D01*
X108424524Y-95605554D01*
X108188201Y-95035021D01*
X107845114Y-94521554D01*
X107408446Y-94084886D01*
X106894979Y-93741799D01*
X106324446Y-93505476D01*
X105718771Y-93385000D01*
X105101229Y-93385000D01*
X104495554Y-93505476D01*
X103925021Y-93741799D01*
X103411554Y-94084886D01*
X102974886Y-94521554D01*
X102631799Y-95035021D01*
X102395476Y-95605554D01*
X102275000Y-96211229D01*
X99720000Y-96211229D01*
X99720000Y-89520000D01*
X112951638Y-89520000D01*
X112955000Y-89554135D01*
X112955001Y-103485855D01*
X112951638Y-103520000D01*
X112965057Y-103656244D01*
X113004798Y-103787252D01*
X113069333Y-103907989D01*
X113156183Y-104013817D01*
X113262011Y-104100667D01*
X113382748Y-104165202D01*
X113513756Y-104204943D01*
X113615865Y-104215000D01*
X113615866Y-104215000D01*
X113650000Y-104218362D01*
X113684135Y-104215000D01*
X127615865Y-104215000D01*
X127650000Y-104218362D01*
X127684134Y-104215000D01*
X127684135Y-104215000D01*
X127786244Y-104204943D01*
X127917252Y-104165202D01*
X128037989Y-104100667D01*
X128143817Y-104013817D01*
X128230667Y-103907989D01*
X128295202Y-103787252D01*
X128334943Y-103656244D01*
X128348362Y-103520000D01*
X128345000Y-103485865D01*
X128345000Y-89554135D01*
X128348362Y-89520000D01*
X132001638Y-89520000D01*
X132005000Y-89554135D01*
X132005001Y-103485855D01*
X132001638Y-103520000D01*
X132015057Y-103656244D01*
X132054798Y-103787252D01*
X132119333Y-103907989D01*
X132206183Y-104013817D01*
X132312011Y-104100667D01*
X132432748Y-104165202D01*
X132563756Y-104204943D01*
X132665865Y-104215000D01*
X132665866Y-104215000D01*
X132700000Y-104218362D01*
X132734135Y-104215000D01*
X146665865Y-104215000D01*
X146700000Y-104218362D01*
X146734134Y-104215000D01*
X146734135Y-104215000D01*
X146836244Y-104204943D01*
X146967252Y-104165202D01*
X147087989Y-104100667D01*
X147193817Y-104013817D01*
X147280667Y-103907989D01*
X147345202Y-103787252D01*
X147384943Y-103656244D01*
X147398362Y-103520000D01*
X147395000Y-103485865D01*
X147395000Y-89554135D01*
X147398362Y-89520000D01*
X151051638Y-89520000D01*
X151055000Y-89554135D01*
X151055001Y-103485855D01*
X151051638Y-103520000D01*
X151065057Y-103656244D01*
X151104798Y-103787252D01*
X151169333Y-103907989D01*
X151256183Y-104013817D01*
X151362011Y-104100667D01*
X151482748Y-104165202D01*
X151613756Y-104204943D01*
X151715865Y-104215000D01*
X151715866Y-104215000D01*
X151750000Y-104218362D01*
X151784135Y-104215000D01*
X165715865Y-104215000D01*
X165750000Y-104218362D01*
X165784134Y-104215000D01*
X165784135Y-104215000D01*
X165886244Y-104204943D01*
X166017252Y-104165202D01*
X166137989Y-104100667D01*
X166243817Y-104013817D01*
X166330667Y-103907989D01*
X166395202Y-103787252D01*
X166434943Y-103656244D01*
X166448362Y-103520000D01*
X166445000Y-103485865D01*
X166445000Y-89554135D01*
X166448362Y-89520000D01*
X170101638Y-89520000D01*
X170105000Y-89554135D01*
X170105001Y-103485855D01*
X170101638Y-103520000D01*
X170115057Y-103656244D01*
X170154798Y-103787252D01*
X170219333Y-103907989D01*
X170306183Y-104013817D01*
X170412011Y-104100667D01*
X170532748Y-104165202D01*
X170663756Y-104204943D01*
X170765865Y-104215000D01*
X170765866Y-104215000D01*
X170800000Y-104218362D01*
X170834135Y-104215000D01*
X184765865Y-104215000D01*
X184800000Y-104218362D01*
X184834134Y-104215000D01*
X184834135Y-104215000D01*
X184936244Y-104204943D01*
X185067252Y-104165202D01*
X185187989Y-104100667D01*
X185293817Y-104013817D01*
X185380667Y-103907989D01*
X185445202Y-103787252D01*
X185484943Y-103656244D01*
X185498362Y-103520000D01*
X185495000Y-103485865D01*
X185495000Y-96211229D01*
X189905000Y-96211229D01*
X189905000Y-96828771D01*
X190025476Y-97434446D01*
X190261799Y-98004979D01*
X190604886Y-98518446D01*
X191041554Y-98955114D01*
X191555021Y-99298201D01*
X192125554Y-99534524D01*
X192731229Y-99655000D01*
X193348771Y-99655000D01*
X193954446Y-99534524D01*
X194524979Y-99298201D01*
X195038446Y-98955114D01*
X195475114Y-98518446D01*
X195818201Y-98004979D01*
X196054524Y-97434446D01*
X196175000Y-96828771D01*
X196175000Y-96211229D01*
X196054524Y-95605554D01*
X195818201Y-95035021D01*
X195475114Y-94521554D01*
X195038446Y-94084886D01*
X194524979Y-93741799D01*
X193954446Y-93505476D01*
X193348771Y-93385000D01*
X192731229Y-93385000D01*
X192125554Y-93505476D01*
X191555021Y-93741799D01*
X191041554Y-94084886D01*
X190604886Y-94521554D01*
X190261799Y-95035021D01*
X190025476Y-95605554D01*
X189905000Y-96211229D01*
X185495000Y-96211229D01*
X185495000Y-89554135D01*
X185498362Y-89520000D01*
X185484943Y-89383756D01*
X185445202Y-89252748D01*
X185380667Y-89132011D01*
X185293817Y-89026183D01*
X185187989Y-88939333D01*
X185067252Y-88874798D01*
X184936244Y-88835057D01*
X184834135Y-88825000D01*
X184800000Y-88821638D01*
X184765866Y-88825000D01*
X170834134Y-88825000D01*
X170800000Y-88821638D01*
X170765865Y-88825000D01*
X170663756Y-88835057D01*
X170532748Y-88874798D01*
X170412011Y-88939333D01*
X170306183Y-89026183D01*
X170219333Y-89132011D01*
X170154798Y-89252748D01*
X170115057Y-89383756D01*
X170101638Y-89520000D01*
X166448362Y-89520000D01*
X166434943Y-89383756D01*
X166395202Y-89252748D01*
X166330667Y-89132011D01*
X166243817Y-89026183D01*
X166137989Y-88939333D01*
X166017252Y-88874798D01*
X165886244Y-88835057D01*
X165784135Y-88825000D01*
X165750000Y-88821638D01*
X165715866Y-88825000D01*
X151784134Y-88825000D01*
X151750000Y-88821638D01*
X151715865Y-88825000D01*
X151613756Y-88835057D01*
X151482748Y-88874798D01*
X151362011Y-88939333D01*
X151256183Y-89026183D01*
X151169333Y-89132011D01*
X151104798Y-89252748D01*
X151065057Y-89383756D01*
X151051638Y-89520000D01*
X147398362Y-89520000D01*
X147384943Y-89383756D01*
X147345202Y-89252748D01*
X147280667Y-89132011D01*
X147193817Y-89026183D01*
X147087989Y-88939333D01*
X146967252Y-88874798D01*
X146836244Y-88835057D01*
X146734135Y-88825000D01*
X146700000Y-88821638D01*
X146665866Y-88825000D01*
X132734134Y-88825000D01*
X132700000Y-88821638D01*
X132665865Y-88825000D01*
X132563756Y-88835057D01*
X132432748Y-88874798D01*
X132312011Y-88939333D01*
X132206183Y-89026183D01*
X132119333Y-89132011D01*
X132054798Y-89252748D01*
X132015057Y-89383756D01*
X132001638Y-89520000D01*
X128348362Y-89520000D01*
X128334943Y-89383756D01*
X128295202Y-89252748D01*
X128230667Y-89132011D01*
X128143817Y-89026183D01*
X128037989Y-88939333D01*
X127917252Y-88874798D01*
X127786244Y-88835057D01*
X127684135Y-88825000D01*
X127650000Y-88821638D01*
X127615866Y-88825000D01*
X113684134Y-88825000D01*
X113650000Y-88821638D01*
X113615865Y-88825000D01*
X113513756Y-88835057D01*
X113382748Y-88874798D01*
X113262011Y-88939333D01*
X113156183Y-89026183D01*
X113069333Y-89132011D01*
X113004798Y-89252748D01*
X112965057Y-89383756D01*
X112951638Y-89520000D01*
X99720000Y-89520000D01*
X99720000Y-70470000D01*
X112951638Y-70470000D01*
X112955000Y-70504135D01*
X112955001Y-84435855D01*
X112951638Y-84470000D01*
X112965057Y-84606244D01*
X113004798Y-84737252D01*
X113069333Y-84857989D01*
X113156183Y-84963817D01*
X113262011Y-85050667D01*
X113382748Y-85115202D01*
X113513756Y-85154943D01*
X113615865Y-85165000D01*
X113615866Y-85165000D01*
X113650000Y-85168362D01*
X113684135Y-85165000D01*
X127615865Y-85165000D01*
X127650000Y-85168362D01*
X127684134Y-85165000D01*
X127684135Y-85165000D01*
X127786244Y-85154943D01*
X127917252Y-85115202D01*
X128037989Y-85050667D01*
X128143817Y-84963817D01*
X128230667Y-84857989D01*
X128295202Y-84737252D01*
X128334943Y-84606244D01*
X128348362Y-84470000D01*
X128345000Y-84435865D01*
X128345000Y-70504135D01*
X128348362Y-70470000D01*
X132001638Y-70470000D01*
X132005000Y-70504135D01*
X132005001Y-84435855D01*
X132001638Y-84470000D01*
X132015057Y-84606244D01*
X132054798Y-84737252D01*
X132119333Y-84857989D01*
X132206183Y-84963817D01*
X132312011Y-85050667D01*
X132432748Y-85115202D01*
X132563756Y-85154943D01*
X132665865Y-85165000D01*
X132665866Y-85165000D01*
X132700000Y-85168362D01*
X132734135Y-85165000D01*
X146665865Y-85165000D01*
X146700000Y-85168362D01*
X146734134Y-85165000D01*
X146734135Y-85165000D01*
X146836244Y-85154943D01*
X146967252Y-85115202D01*
X147087989Y-85050667D01*
X147193817Y-84963817D01*
X147280667Y-84857989D01*
X147345202Y-84737252D01*
X147384943Y-84606244D01*
X147398362Y-84470000D01*
X147395000Y-84435865D01*
X147395000Y-70504135D01*
X147398362Y-70470000D01*
X151051638Y-70470000D01*
X151055000Y-70504135D01*
X151055001Y-84435855D01*
X151051638Y-84470000D01*
X151065057Y-84606244D01*
X151104798Y-84737252D01*
X151169333Y-84857989D01*
X151256183Y-84963817D01*
X151362011Y-85050667D01*
X151482748Y-85115202D01*
X151613756Y-85154943D01*
X151715865Y-85165000D01*
X151715866Y-85165000D01*
X151750000Y-85168362D01*
X151784135Y-85165000D01*
X165715865Y-85165000D01*
X165750000Y-85168362D01*
X165784134Y-85165000D01*
X165784135Y-85165000D01*
X165886244Y-85154943D01*
X166017252Y-85115202D01*
X166137989Y-85050667D01*
X166243817Y-84963817D01*
X166330667Y-84857989D01*
X166395202Y-84737252D01*
X166434943Y-84606244D01*
X166448362Y-84470000D01*
X166445000Y-84435865D01*
X166445000Y-70504135D01*
X166448362Y-70470000D01*
X170101638Y-70470000D01*
X170105000Y-70504135D01*
X170105001Y-84435855D01*
X170101638Y-84470000D01*
X170115057Y-84606244D01*
X170154798Y-84737252D01*
X170219333Y-84857989D01*
X170306183Y-84963817D01*
X170412011Y-85050667D01*
X170532748Y-85115202D01*
X170663756Y-85154943D01*
X170765865Y-85165000D01*
X170765866Y-85165000D01*
X170800000Y-85168362D01*
X170834135Y-85165000D01*
X184765865Y-85165000D01*
X184800000Y-85168362D01*
X184834134Y-85165000D01*
X184834135Y-85165000D01*
X184936244Y-85154943D01*
X185067252Y-85115202D01*
X185187989Y-85050667D01*
X185293817Y-84963817D01*
X185380667Y-84857989D01*
X185445202Y-84737252D01*
X185484943Y-84606244D01*
X185498362Y-84470000D01*
X185495000Y-84435865D01*
X185495000Y-70504135D01*
X185498362Y-70470000D01*
X185484943Y-70333756D01*
X185445202Y-70202748D01*
X185380667Y-70082011D01*
X185293817Y-69976183D01*
X185187989Y-69889333D01*
X185067252Y-69824798D01*
X184936244Y-69785057D01*
X184834135Y-69775000D01*
X184800000Y-69771638D01*
X184765866Y-69775000D01*
X170834134Y-69775000D01*
X170800000Y-69771638D01*
X170765865Y-69775000D01*
X170663756Y-69785057D01*
X170532748Y-69824798D01*
X170412011Y-69889333D01*
X170306183Y-69976183D01*
X170219333Y-70082011D01*
X170154798Y-70202748D01*
X170115057Y-70333756D01*
X170101638Y-70470000D01*
X166448362Y-70470000D01*
X166434943Y-70333756D01*
X166395202Y-70202748D01*
X166330667Y-70082011D01*
X166243817Y-69976183D01*
X166137989Y-69889333D01*
X166017252Y-69824798D01*
X165886244Y-69785057D01*
X165784135Y-69775000D01*
X165750000Y-69771638D01*
X165715866Y-69775000D01*
X151784134Y-69775000D01*
X151750000Y-69771638D01*
X151715865Y-69775000D01*
X151613756Y-69785057D01*
X151482748Y-69824798D01*
X151362011Y-69889333D01*
X151256183Y-69976183D01*
X151169333Y-70082011D01*
X151104798Y-70202748D01*
X151065057Y-70333756D01*
X151051638Y-70470000D01*
X147398362Y-70470000D01*
X147384943Y-70333756D01*
X147345202Y-70202748D01*
X147280667Y-70082011D01*
X147193817Y-69976183D01*
X147087989Y-69889333D01*
X146967252Y-69824798D01*
X146836244Y-69785057D01*
X146734135Y-69775000D01*
X146700000Y-69771638D01*
X146665866Y-69775000D01*
X132734134Y-69775000D01*
X132700000Y-69771638D01*
X132665865Y-69775000D01*
X132563756Y-69785057D01*
X132432748Y-69824798D01*
X132312011Y-69889333D01*
X132206183Y-69976183D01*
X132119333Y-70082011D01*
X132054798Y-70202748D01*
X132015057Y-70333756D01*
X132001638Y-70470000D01*
X128348362Y-70470000D01*
X128334943Y-70333756D01*
X128295202Y-70202748D01*
X128230667Y-70082011D01*
X128143817Y-69976183D01*
X128037989Y-69889333D01*
X127917252Y-69824798D01*
X127786244Y-69785057D01*
X127684135Y-69775000D01*
X127650000Y-69771638D01*
X127615866Y-69775000D01*
X113684134Y-69775000D01*
X113650000Y-69771638D01*
X113615865Y-69775000D01*
X113513756Y-69785057D01*
X113382748Y-69824798D01*
X113262011Y-69889333D01*
X113156183Y-69976183D01*
X113069333Y-70082011D01*
X113004798Y-70202748D01*
X112965057Y-70333756D01*
X112951638Y-70470000D01*
X99720000Y-70470000D01*
X99720000Y-51420000D01*
X112951638Y-51420000D01*
X112955000Y-51454135D01*
X112955001Y-65385855D01*
X112951638Y-65420000D01*
X112965057Y-65556244D01*
X113004798Y-65687252D01*
X113069333Y-65807989D01*
X113156183Y-65913817D01*
X113262011Y-66000667D01*
X113382748Y-66065202D01*
X113513756Y-66104943D01*
X113615865Y-66115000D01*
X113615866Y-66115000D01*
X113650000Y-66118362D01*
X113684135Y-66115000D01*
X127615865Y-66115000D01*
X127650000Y-66118362D01*
X127684134Y-66115000D01*
X127684135Y-66115000D01*
X127786244Y-66104943D01*
X127917252Y-66065202D01*
X128037989Y-66000667D01*
X128143817Y-65913817D01*
X128230667Y-65807989D01*
X128295202Y-65687252D01*
X128334943Y-65556244D01*
X128348362Y-65420000D01*
X128345000Y-65385865D01*
X128345000Y-51454135D01*
X128348362Y-51420000D01*
X132001638Y-51420000D01*
X132005000Y-51454135D01*
X132005001Y-65385855D01*
X132001638Y-65420000D01*
X132015057Y-65556244D01*
X132054798Y-65687252D01*
X132119333Y-65807989D01*
X132206183Y-65913817D01*
X132312011Y-66000667D01*
X132432748Y-66065202D01*
X132563756Y-66104943D01*
X132665865Y-66115000D01*
X132665866Y-66115000D01*
X132700000Y-66118362D01*
X132734135Y-66115000D01*
X146665865Y-66115000D01*
X146700000Y-66118362D01*
X146734134Y-66115000D01*
X146734135Y-66115000D01*
X146836244Y-66104943D01*
X146967252Y-66065202D01*
X147087989Y-66000667D01*
X147193817Y-65913817D01*
X147280667Y-65807989D01*
X147345202Y-65687252D01*
X147384943Y-65556244D01*
X147398362Y-65420000D01*
X147395000Y-65385865D01*
X147395000Y-51454135D01*
X147398362Y-51420000D01*
X151051638Y-51420000D01*
X151055000Y-51454135D01*
X151055001Y-65385855D01*
X151051638Y-65420000D01*
X151065057Y-65556244D01*
X151104798Y-65687252D01*
X151169333Y-65807989D01*
X151256183Y-65913817D01*
X151362011Y-66000667D01*
X151482748Y-66065202D01*
X151613756Y-66104943D01*
X151715865Y-66115000D01*
X151715866Y-66115000D01*
X151750000Y-66118362D01*
X151784135Y-66115000D01*
X165715865Y-66115000D01*
X165750000Y-66118362D01*
X165784134Y-66115000D01*
X165784135Y-66115000D01*
X165886244Y-66104943D01*
X166017252Y-66065202D01*
X166137989Y-66000667D01*
X166243817Y-65913817D01*
X166330667Y-65807989D01*
X166395202Y-65687252D01*
X166434943Y-65556244D01*
X166448362Y-65420000D01*
X166445000Y-65385865D01*
X166445000Y-51454135D01*
X166448362Y-51420000D01*
X170101638Y-51420000D01*
X170105000Y-51454135D01*
X170105001Y-65385855D01*
X170101638Y-65420000D01*
X170115057Y-65556244D01*
X170154798Y-65687252D01*
X170219333Y-65807989D01*
X170306183Y-65913817D01*
X170412011Y-66000667D01*
X170532748Y-66065202D01*
X170663756Y-66104943D01*
X170765865Y-66115000D01*
X170765866Y-66115000D01*
X170800000Y-66118362D01*
X170834135Y-66115000D01*
X184765865Y-66115000D01*
X184800000Y-66118362D01*
X184834134Y-66115000D01*
X184834135Y-66115000D01*
X184936244Y-66104943D01*
X185067252Y-66065202D01*
X185187989Y-66000667D01*
X185293817Y-65913817D01*
X185380667Y-65807989D01*
X185445202Y-65687252D01*
X185484943Y-65556244D01*
X185498362Y-65420000D01*
X185495000Y-65385865D01*
X185495000Y-51454135D01*
X185498362Y-51420000D01*
X185484943Y-51283756D01*
X185445202Y-51152748D01*
X185380667Y-51032011D01*
X185293817Y-50926183D01*
X185187989Y-50839333D01*
X185067252Y-50774798D01*
X184936244Y-50735057D01*
X184834135Y-50725000D01*
X184800000Y-50721638D01*
X184765866Y-50725000D01*
X170834134Y-50725000D01*
X170800000Y-50721638D01*
X170765865Y-50725000D01*
X170663756Y-50735057D01*
X170532748Y-50774798D01*
X170412011Y-50839333D01*
X170306183Y-50926183D01*
X170219333Y-51032011D01*
X170154798Y-51152748D01*
X170115057Y-51283756D01*
X170101638Y-51420000D01*
X166448362Y-51420000D01*
X166434943Y-51283756D01*
X166395202Y-51152748D01*
X166330667Y-51032011D01*
X166243817Y-50926183D01*
X166137989Y-50839333D01*
X166017252Y-50774798D01*
X165886244Y-50735057D01*
X165784135Y-50725000D01*
X165750000Y-50721638D01*
X165715866Y-50725000D01*
X151784134Y-50725000D01*
X151750000Y-50721638D01*
X151715865Y-50725000D01*
X151613756Y-50735057D01*
X151482748Y-50774798D01*
X151362011Y-50839333D01*
X151256183Y-50926183D01*
X151169333Y-51032011D01*
X151104798Y-51152748D01*
X151065057Y-51283756D01*
X151051638Y-51420000D01*
X147398362Y-51420000D01*
X147384943Y-51283756D01*
X147345202Y-51152748D01*
X147280667Y-51032011D01*
X147193817Y-50926183D01*
X147087989Y-50839333D01*
X146967252Y-50774798D01*
X146836244Y-50735057D01*
X146734135Y-50725000D01*
X146700000Y-50721638D01*
X146665866Y-50725000D01*
X132734134Y-50725000D01*
X132700000Y-50721638D01*
X132665865Y-50725000D01*
X132563756Y-50735057D01*
X132432748Y-50774798D01*
X132312011Y-50839333D01*
X132206183Y-50926183D01*
X132119333Y-51032011D01*
X132054798Y-51152748D01*
X132015057Y-51283756D01*
X132001638Y-51420000D01*
X128348362Y-51420000D01*
X128334943Y-51283756D01*
X128295202Y-51152748D01*
X128230667Y-51032011D01*
X128143817Y-50926183D01*
X128037989Y-50839333D01*
X127917252Y-50774798D01*
X127786244Y-50735057D01*
X127684135Y-50725000D01*
X127650000Y-50721638D01*
X127615866Y-50725000D01*
X113684134Y-50725000D01*
X113650000Y-50721638D01*
X113615865Y-50725000D01*
X113513756Y-50735057D01*
X113382748Y-50774798D01*
X113262011Y-50839333D01*
X113156183Y-50926183D01*
X113069333Y-51032011D01*
X113004798Y-51152748D01*
X112965057Y-51283756D01*
X112951638Y-51420000D01*
X99720000Y-51420000D01*
X99720000Y-43205926D01*
X99746341Y-42871229D01*
X102275000Y-42871229D01*
X102275000Y-43488771D01*
X102395476Y-44094446D01*
X102631799Y-44664979D01*
X102974886Y-45178446D01*
X103411554Y-45615114D01*
X103925021Y-45958201D01*
X104495554Y-46194524D01*
X105101229Y-46315000D01*
X105718771Y-46315000D01*
X106324446Y-46194524D01*
X106894979Y-45958201D01*
X107408446Y-45615114D01*
X107845114Y-45178446D01*
X108188201Y-44664979D01*
X108424524Y-44094446D01*
X108545000Y-43488771D01*
X108545000Y-42871229D01*
X189905000Y-42871229D01*
X189905000Y-43488771D01*
X190025476Y-44094446D01*
X190261799Y-44664979D01*
X190604886Y-45178446D01*
X191041554Y-45615114D01*
X191555021Y-45958201D01*
X192125554Y-46194524D01*
X192731229Y-46315000D01*
X193348771Y-46315000D01*
X193954446Y-46194524D01*
X194524979Y-45958201D01*
X195038446Y-45615114D01*
X195475114Y-45178446D01*
X195818201Y-44664979D01*
X196054524Y-44094446D01*
X196175000Y-43488771D01*
X196175000Y-42871229D01*
X196054524Y-42265554D01*
X195818201Y-41695021D01*
X195475114Y-41181554D01*
X195038446Y-40744886D01*
X194524979Y-40401799D01*
X193954446Y-40165476D01*
X193348771Y-40045000D01*
X192731229Y-40045000D01*
X192125554Y-40165476D01*
X191555021Y-40401799D01*
X191041554Y-40744886D01*
X190604886Y-41181554D01*
X190261799Y-41695021D01*
X190025476Y-42265554D01*
X189905000Y-42871229D01*
X108545000Y-42871229D01*
X108424524Y-42265554D01*
X108188201Y-41695021D01*
X107845114Y-41181554D01*
X107408446Y-40744886D01*
X106894979Y-40401799D01*
X106324446Y-40165476D01*
X105718771Y-40045000D01*
X105101229Y-40045000D01*
X104495554Y-40165476D01*
X103925021Y-40401799D01*
X103411554Y-40744886D01*
X102974886Y-41181554D01*
X102631799Y-41695021D01*
X102395476Y-42265554D01*
X102275000Y-42871229D01*
X99746341Y-42871229D01*
X99792068Y-42290209D01*
X99926168Y-41731644D01*
X100434374Y-40715232D01*
X102945232Y-38204374D01*
X103961643Y-37696169D01*
X104520207Y-37562069D01*
X105435926Y-37490000D01*
X193014074Y-37490000D01*
X193929791Y-37562068D01*
M02*
