  0
SECTION
  2
HEADER
  9
$ACADVER
  1
AC1009
  9
$EXTMIN
 10
0.0
 20
0.0
 30
0.0
  9
$EXTMAX
 10
1000.0
 20
1000.0
 30
0.0
  9
$FILLMODE
 70
 0
  9
$SPLFRAME
 70
 1
  0
ENDSEC
  0
SECTION
  2
TABLES
  0
TABLE
  2
LAYER
 70
1
  0
LAYER
  2
0
 70
     0
 62
     7
  6
CONTINUOUS
  0
ENDTAB
  0
ENDSEC
  0
SECTION
  2
ENTITIES
  0
LINE
  8
0
 62
     0
 10
43.1934
 20
115.343
 30
0.0
 11
43.1934
 21
105.344
 31
0.0
  0
LINE
  8
0
 62
     0
 10
43.1934
 20
105.344
 30
0.0
 11
10.0941
 21
105.344
 31
0.0
  0
LINE
  8
0
 62
     0
 10
10.0941
 20
105.344
 30
0.0
 11
10.0941
 21
10.0941
 31
0.0
  0
LINE
  8
0
 62
     0
 10
10.0941
 20
10.0941
 30
0.0
 11
86.2954
 21
10.0941
 31
0.0
  0
LINE
  8
0
 62
     0
 10
86.2954
 20
10.0941
 30
0.0
 11
86.2954
 21
105.344
 31
0.0
  0
LINE
  8
0
 62
     0
 10
86.2954
 20
105.344
 30
0.0
 11
53.1936
 21
105.344
 31
0.0
  0
LINE
  8
0
 62
     0
 10
53.1936
 20
105.344
 30
0.0
 11
53.1936
 21
115.342
 31
0.0
  0
LINE
  8
0
 62
     0
 10
53.1936
 20
115.342
 30
0.0
 11
91.2964
 21
115.342
 31
0.0
  0
LINE
  8
0
 62
     0
 10
91.2964
 20
115.342
 30
0.0
 11
91.6877
 21
115.328
 31
0.0
  0
LINE
  8
0
 62
     0
 10
91.6877
 20
115.328
 30
0.0
 11
92.0778
 21
115.282
 31
0.0
  0
LINE
  8
0
 62
     0
 10
92.0778
 20
115.282
 30
0.0
 11
92.4623
 21
115.204
 31
0.0
  0
LINE
  8
0
 62
     0
 10
92.4623
 20
115.204
 30
0.0
 11
92.8412
 21
115.098
 31
0.0
  0
LINE
  8
0
 62
     0
 10
92.8412
 20
115.098
 30
0.0
 11
93.2092
 21
114.961
 31
0.0
  0
LINE
  8
0
 62
     0
 10
93.2092
 20
114.961
 30
0.0
 11
93.5648
 21
114.799
 31
0.0
  0
LINE
  8
0
 62
     0
 10
93.5648
 20
114.799
 30
0.0
 11
93.9077
 21
114.607
 31
0.0
  0
LINE
  8
0
 62
     0
 10
93.9077
 20
114.607
 30
0.0
 11
94.2344
 21
114.388
 31
0.0
  0
LINE
  8
0
 62
     0
 10
94.2344
 20
114.388
 30
0.0
 11
94.543
 21
114.146
 31
0.0
  0
LINE
  8
0
 62
     0
 10
94.543
 20
114.146
 30
0.0
 11
94.8312
 21
113.878
 31
0.0
  0
LINE
  8
0
 62
     0
 10
94.8312
 20
113.878
 30
0.0
 11
95.0983
 21
113.592
 31
0.0
  0
LINE
  8
0
 62
     0
 10
95.0983
 20
113.592
 30
0.0
 11
95.341
 21
113.283
 31
0.0
  0
LINE
  8
0
 62
     0
 10
95.341
 20
113.283
 30
0.0
 11
95.5587
 21
112.955
 31
0.0
  0
LINE
  8
0
 62
     0
 10
95.5587
 20
112.955
 30
0.0
 11
95.7502
 21
112.612
 31
0.0
  0
LINE
  8
0
 62
     0
 10
95.7502
 20
112.612
 30
0.0
 11
95.9143
 21
112.256
 31
0.0
  0
LINE
  8
0
 62
     0
 10
95.9143
 20
112.256
 30
0.0
 11
96.0508
 21
111.888
 31
0.0
  0
LINE
  8
0
 62
     0
 10
96.0508
 20
111.888
 30
0.0
 11
96.1566
 21
111.51
 31
0.0
  0
LINE
  8
0
 62
     0
 10
96.1566
 20
111.51
 30
0.0
 11
96.2339
 21
111.125
 31
0.0
  0
LINE
  8
0
 62
     0
 10
96.2339
 20
111.125
 30
0.0
 11
96.2794
 21
110.735
 31
0.0
  0
LINE
  8
0
 62
     0
 10
96.2794
 20
110.735
 30
0.0
 11
96.296
 21
110.344
 31
0.0
  0
LINE
  8
0
 62
     0
 10
96.296
 20
110.344
 30
0.0
 11
96.296
 21
5.09185
 31
0.0
  0
LINE
  8
0
 62
     0
 10
96.296
 20
5.09185
 30
0.0
 11
96.2794
 21
4.70048
 31
0.0
  0
LINE
  8
0
 62
     0
 10
96.2794
 20
4.70048
 30
0.0
 11
96.2339
 21
4.30911
 31
0.0
  0
LINE
  8
0
 62
     0
 10
96.2339
 20
4.30911
 30
0.0
 11
96.1566
 21
3.92465
 31
0.0
  0
LINE
  8
0
 62
     0
 10
96.1566
 20
3.92465
 30
0.0
 11
96.0508
 21
3.5457
 31
0.0
  0
LINE
  8
0
 62
     0
 10
96.0508
 20
3.5457
 30
0.0
 11
95.9143
 21
3.17776
 31
0.0
  0
LINE
  8
0
 62
     0
 10
95.9143
 20
3.17776
 30
0.0
 11
95.7502
 21
2.82222
 31
0.0
  0
LINE
  8
0
 62
     0
 10
95.7502
 20
2.82222
 30
0.0
 11
95.5587
 21
2.48047
 31
0.0
  0
LINE
  8
0
 62
     0
 10
95.5587
 20
2.48047
 30
0.0
 11
95.341
 21
2.15249
 31
0.0
  0
LINE
  8
0
 62
     0
 10
95.341
 20
2.15249
 30
0.0
 11
95.0983
 21
1.84381
 31
0.0
  0
LINE
  8
0
 62
     0
 10
95.0983
 20
1.84381
 30
0.0
 11
94.8312
 21
1.55718
 31
0.0
  0
LINE
  8
0
 62
     0
 10
94.8312
 20
1.55718
 30
0.0
 11
94.543
 21
1.28984
 31
0.0
  0
LINE
  8
0
 62
     0
 10
94.543
 20
1.28984
 30
0.0
 11
94.2344
 21
1.04593
 31
0.0
  0
LINE
  8
0
 62
     0
 10
94.2344
 20
1.04593
 30
0.0
 11
93.9077
 21
0.828202
 31
0.0
  0
LINE
  8
0
 62
     0
 10
93.9077
 20
0.828202
 30
0.0
 11
93.5648
 21
0.636655
 31
0.0
  0
LINE
  8
0
 62
     0
 10
93.5648
 20
0.636655
 30
0.0
 11
93.2092
 21
0.472666
 31
0.0
  0
LINE
  8
0
 62
     0
 10
93.2092
 20
0.472666
 30
0.0
 11
92.8412
 21
0.336241
 31
0.0
  0
LINE
  8
0
 62
     0
 10
92.8412
 20
0.336241
 30
0.0
 11
92.4623
 21
0.23151
 31
0.0
  0
LINE
  8
0
 62
     0
 10
92.4623
 20
0.23151
 30
0.0
 11
92.0778
 21
0.152962
 31
0.0
  0
LINE
  8
0
 62
     0
 10
92.0778
 20
0.152962
 30
0.0
 11
91.6877
 21
0.107487
 31
0.0
  0
LINE
  8
0
 62
     0
 10
91.6877
 20
0.107487
 30
0.0
 11
91.295
 21
0.0909507
 31
0.0
  0
LINE
  8
0
 62
     0
 10
91.295
 20
0.0909507
 30
0.0
 11
5.0946
 21
0.0923286
 31
0.0
  0
LINE
  8
0
 62
     0
 10
5.0946
 20
0.0923286
 30
0.0
 11
4.70186
 21
0.107487
 31
0.0
  0
LINE
  8
0
 62
     0
 10
4.70186
 20
0.107487
 30
0.0
 11
4.3119
 21
0.152962
 31
0.0
  0
LINE
  8
0
 62
     0
 10
4.3119
 20
0.152962
 30
0.0
 11
3.9274
 21
0.23151
 31
0.0
  0
LINE
  8
0
 62
     0
 10
3.9274
 20
0.23151
 30
0.0
 11
3.54845
 21
0.336241
 31
0.0
  0
LINE
  8
0
 62
     0
 10
3.54845
 20
0.336241
 30
0.0
 11
3.18051
 21
0.472666
 31
0.0
  0
LINE
  8
0
 62
     0
 10
3.18051
 20
0.472666
 30
0.0
 11
2.82498
 21
0.636655
 31
0.0
  0
LINE
  8
0
 62
     0
 10
2.82498
 20
0.636655
 30
0.0
 11
2.48185
 21
0.828202
 31
0.0
  0
LINE
  8
0
 62
     0
 10
2.48185
 20
0.828202
 30
0.0
 11
2.15525
 21
1.04593
 31
0.0
  0
LINE
  8
0
 62
     0
 10
2.15525
 20
1.04593
 30
0.0
 11
1.84657
 21
1.28984
 31
0.0
  0
LINE
  8
0
 62
     0
 10
1.84657
 20
1.28984
 30
0.0
 11
1.55856
 21
1.55718
 31
0.0
  0
LINE
  8
0
 62
     0
 10
1.55856
 20
1.55718
 30
0.0
 11
1.29122
 21
1.84381
 31
0.0
  0
LINE
  8
0
 62
     0
 10
1.29122
 20
1.84381
 30
0.0
 11
1.04869
 21
2.15249
 31
0.0
  0
LINE
  8
0
 62
     0
 10
1.04869
 20
2.15249
 30
0.0
 11
0.830957
 21
2.48047
 31
0.0
  0
LINE
  8
0
 62
     0
 10
0.830957
 20
2.48047
 30
0.0
 11
0.63941
 21
2.82222
 31
0.0
  0
LINE
  8
0
 62
     0
 10
0.63941
 20
2.82222
 30
0.0
 11
0.475424
 21
3.17776
 31
0.0
  0
LINE
  8
0
 62
     0
 10
0.475424
 20
3.17776
 30
0.0
 11
0.338998
 21
3.5457
 31
0.0
  0
LINE
  8
0
 62
     0
 10
0.338998
 20
3.5457
 30
0.0
 11
0.232888
 21
3.92465
 31
0.0
  0
LINE
  8
0
 62
     0
 10
0.232888
 20
3.92465
 30
0.0
 11
0.155718
 21
4.30911
 31
0.0
  0
LINE
  8
0
 62
     0
 10
0.155718
 20
4.30911
 30
0.0
 11
0.110243
 21
4.70048
 31
0.0
  0
LINE
  8
0
 62
     0
 10
0.110243
 20
4.70048
 30
0.0
 11
0.0937066
 21
5.09185
 31
0.0
  0
LINE
  8
0
 62
     0
 10
0.0937066
 20
5.09185
 30
0.0
 11
0.0950846
 21
110.344
 31
0.0
  0
LINE
  8
0
 62
     0
 10
0.0950846
 20
110.344
 30
0.0
 11
0.110243
 21
110.735
 31
0.0
  0
LINE
  8
0
 62
     0
 10
0.110243
 20
110.735
 30
0.0
 11
0.155718
 21
111.125
 31
0.0
  0
LINE
  8
0
 62
     0
 10
0.155718
 20
111.125
 30
0.0
 11
0.232888
 21
111.51
 31
0.0
  0
LINE
  8
0
 62
     0
 10
0.232888
 20
111.51
 30
0.0
 11
0.338998
 21
111.888
 31
0.0
  0
LINE
  8
0
 62
     0
 10
0.338998
 20
111.888
 30
0.0
 11
0.475424
 21
112.256
 31
0.0
  0
LINE
  8
0
 62
     0
 10
0.475424
 20
112.256
 30
0.0
 11
0.63941
 21
112.612
 31
0.0
  0
LINE
  8
0
 62
     0
 10
0.63941
 20
112.612
 30
0.0
 11
0.830957
 21
112.955
 31
0.0
  0
LINE
  8
0
 62
     0
 10
0.830957
 20
112.955
 30
0.0
 11
1.04869
 21
113.283
 31
0.0
  0
LINE
  8
0
 62
     0
 10
1.04869
 20
113.283
 30
0.0
 11
1.29122
 21
113.592
 31
0.0
  0
LINE
  8
0
 62
     0
 10
1.29122
 20
113.592
 30
0.0
 11
1.55856
 21
113.878
 31
0.0
  0
LINE
  8
0
 62
     0
 10
1.55856
 20
113.878
 30
0.0
 11
1.84657
 21
114.146
 31
0.0
  0
LINE
  8
0
 62
     0
 10
1.84657
 20
114.146
 30
0.0
 11
2.15525
 21
114.388
 31
0.0
  0
LINE
  8
0
 62
     0
 10
2.15525
 20
114.388
 30
0.0
 11
2.48185
 21
114.607
 31
0.0
  0
LINE
  8
0
 62
     0
 10
2.48185
 20
114.607
 30
0.0
 11
2.82498
 21
114.799
 31
0.0
  0
LINE
  8
0
 62
     0
 10
2.82498
 20
114.799
 30
0.0
 11
3.18051
 21
114.961
 31
0.0
  0
LINE
  8
0
 62
     0
 10
3.18051
 20
114.961
 30
0.0
 11
3.54845
 21
115.098
 31
0.0
  0
LINE
  8
0
 62
     0
 10
3.54845
 20
115.098
 30
0.0
 11
3.9274
 21
115.204
 31
0.0
  0
LINE
  8
0
 62
     0
 10
3.9274
 20
115.204
 30
0.0
 11
4.3119
 21
115.282
 31
0.0
  0
LINE
  8
0
 62
     0
 10
4.3119
 20
115.282
 30
0.0
 11
4.70186
 21
115.328
 31
0.0
  0
LINE
  8
0
 62
     0
 10
4.70186
 20
115.328
 30
0.0
 11
5.0946
 21
115.343
 31
0.0
  0
LINE
  8
0
 62
     0
 10
5.0946
 20
115.343
 30
0.0
 11
43.1934
 21
115.343
 31
0.0
  0
LINE
  8
0
 62
     0
 10
90.8322
 20
6.51813
 30
0.0
 11
90.4131
 21
6.30453
 31
0.0
  0
LINE
  8
0
 62
     0
 10
90.4131
 20
6.30453
 30
0.0
 11
90.0825
 21
5.9738
 31
0.0
  0
LINE
  8
0
 62
     0
 10
90.0825
 20
5.9738
 30
0.0
 11
89.8687
 21
5.55487
 31
0.0
  0
LINE
  8
0
 62
     0
 10
89.8687
 20
5.55487
 30
0.0
 11
89.7957
 21
5.09185
 31
0.0
  0
LINE
  8
0
 62
     0
 10
89.7957
 20
5.09185
 30
0.0
 11
89.8687
 21
4.62883
 31
0.0
  0
LINE
  8
0
 62
     0
 10
89.8687
 20
4.62883
 30
0.0
 11
90.0825
 21
4.20991
 31
0.0
  0
LINE
  8
0
 62
     0
 10
90.0825
 20
4.20991
 30
0.0
 11
90.4131
 21
3.87918
 31
0.0
  0
LINE
  8
0
 62
     0
 10
90.4131
 20
3.87918
 30
0.0
 11
90.8322
 21
3.66557
 31
0.0
  0
LINE
  8
0
 62
     0
 10
90.8322
 20
3.66557
 30
0.0
 11
91.2964
 21
3.59255
 31
0.0
  0
LINE
  8
0
 62
     0
 10
91.2964
 20
3.59255
 30
0.0
 11
91.7593
 21
3.66557
 31
0.0
  0
LINE
  8
0
 62
     0
 10
91.7593
 20
3.66557
 30
0.0
 11
92.177
 21
3.87918
 31
0.0
  0
LINE
  8
0
 62
     0
 10
92.177
 20
3.87918
 30
0.0
 11
92.5089
 21
4.20991
 31
0.0
  0
LINE
  8
0
 62
     0
 10
92.5089
 20
4.20991
 30
0.0
 11
92.7213
 21
4.62883
 31
0.0
  0
LINE
  8
0
 62
     0
 10
92.7213
 20
4.62883
 30
0.0
 11
92.7957
 21
5.09185
 31
0.0
  0
LINE
  8
0
 62
     0
 10
92.7957
 20
5.09185
 30
0.0
 11
92.7213
 21
5.55487
 31
0.0
  0
LINE
  8
0
 62
     0
 10
92.7213
 20
5.55487
 30
0.0
 11
92.5089
 21
5.9738
 31
0.0
  0
LINE
  8
0
 62
     0
 10
92.5089
 20
5.9738
 30
0.0
 11
92.177
 21
6.30453
 31
0.0
  0
LINE
  8
0
 62
     0
 10
92.177
 20
6.30453
 30
0.0
 11
91.7593
 21
6.51813
 31
0.0
  0
LINE
  8
0
 62
     0
 10
91.7593
 20
6.51813
 30
0.0
 11
91.2964
 21
6.59253
 31
0.0
  0
LINE
  8
0
 62
     0
 10
91.2964
 20
6.59253
 30
0.0
 11
90.8322
 21
6.51813
 31
0.0
  0
LINE
  8
0
 62
     0
 10
4.63021
 20
6.51813
 30
0.0
 11
4.21266
 21
6.30453
 31
0.0
  0
LINE
  8
0
 62
     0
 10
4.21266
 20
6.30453
 30
0.0
 11
3.88056
 21
5.9738
 31
0.0
  0
LINE
  8
0
 62
     0
 10
3.88056
 20
5.9738
 30
0.0
 11
3.66832
 21
5.55487
 31
0.0
  0
LINE
  8
0
 62
     0
 10
3.66832
 20
5.55487
 30
0.0
 11
3.5953
 21
5.09185
 31
0.0
  0
LINE
  8
0
 62
     0
 10
3.5953
 20
5.09185
 30
0.0
 11
3.66832
 21
4.62883
 31
0.0
  0
LINE
  8
0
 62
     0
 10
3.66832
 20
4.62883
 30
0.0
 11
3.88056
 21
4.20991
 31
0.0
  0
LINE
  8
0
 62
     0
 10
3.88056
 20
4.20991
 30
0.0
 11
4.21266
 21
3.87918
 31
0.0
  0
LINE
  8
0
 62
     0
 10
4.21266
 20
3.87918
 30
0.0
 11
4.63021
 21
3.66557
 31
0.0
  0
LINE
  8
0
 62
     0
 10
4.63021
 20
3.66557
 30
0.0
 11
5.0946
 21
3.59255
 31
0.0
  0
LINE
  8
0
 62
     0
 10
5.0946
 20
3.59255
 30
0.0
 11
5.55763
 21
3.66557
 31
0.0
  0
LINE
  8
0
 62
     0
 10
5.55763
 20
3.66557
 30
0.0
 11
5.97517
 21
3.87918
 31
0.0
  0
LINE
  8
0
 62
     0
 10
5.97517
 20
3.87918
 30
0.0
 11
6.30728
 21
4.20991
 31
0.0
  0
LINE
  8
0
 62
     0
 10
6.30728
 20
4.20991
 30
0.0
 11
6.52089
 21
4.62883
 31
0.0
  0
LINE
  8
0
 62
     0
 10
6.52089
 20
4.62883
 30
0.0
 11
6.59529
 21
5.09185
 31
0.0
  0
LINE
  8
0
 62
     0
 10
6.59529
 20
5.09185
 30
0.0
 11
6.52089
 21
5.55487
 31
0.0
  0
LINE
  8
0
 62
     0
 10
6.52089
 20
5.55487
 30
0.0
 11
6.30728
 21
5.9738
 31
0.0
  0
LINE
  8
0
 62
     0
 10
6.30728
 20
5.9738
 30
0.0
 11
5.97517
 21
6.30453
 31
0.0
  0
LINE
  8
0
 62
     0
 10
5.97517
 20
6.30453
 30
0.0
 11
5.55763
 21
6.51813
 31
0.0
  0
LINE
  8
0
 62
     0
 10
5.55763
 20
6.51813
 30
0.0
 11
5.0946
 21
6.59253
 31
0.0
  0
LINE
  8
0
 62
     0
 10
5.0946
 20
6.59253
 30
0.0
 11
4.63021
 21
6.51813
 31
0.0
  0
LINE
  8
0
 62
     0
 10
90.8322
 20
59.1453
 30
0.0
 11
90.4131
 21
58.9319
 31
0.0
  0
LINE
  8
0
 62
     0
 10
90.4131
 20
58.9319
 30
0.0
 11
90.0825
 21
58.601
 31
0.0
  0
LINE
  8
0
 62
     0
 10
90.0825
 20
58.601
 30
0.0
 11
89.8687
 21
58.1808
 31
0.0
  0
LINE
  8
0
 62
     0
 10
89.8687
 20
58.1808
 30
0.0
 11
89.7957
 21
57.719
 31
0.0
  0
LINE
  8
0
 62
     0
 10
89.7957
 20
57.719
 30
0.0
 11
89.8687
 21
57.2534
 31
0.0
  0
LINE
  8
0
 62
     0
 10
89.8687
 20
57.2534
 30
0.0
 11
90.0825
 21
56.8371
 31
0.0
  0
LINE
  8
0
 62
     0
 10
90.0825
 20
56.8371
 30
0.0
 11
90.4131
 21
56.5037
 31
0.0
  0
LINE
  8
0
 62
     0
 10
90.4131
 20
56.5037
 30
0.0
 11
90.8322
 21
56.2903
 31
0.0
  0
LINE
  8
0
 62
     0
 10
90.8322
 20
56.2903
 30
0.0
 11
91.2964
 21
56.2169
 31
0.0
  0
LINE
  8
0
 62
     0
 10
91.2964
 20
56.2169
 30
0.0
 11
91.7593
 21
56.2903
 31
0.0
  0
LINE
  8
0
 62
     0
 10
91.7593
 20
56.2903
 30
0.0
 11
92.177
 21
56.5037
 31
0.0
  0
LINE
  8
0
 62
     0
 10
92.177
 20
56.5037
 30
0.0
 11
92.5089
 21
56.8371
 31
0.0
  0
LINE
  8
0
 62
     0
 10
92.5089
 20
56.8371
 30
0.0
 11
92.7213
 21
57.2534
 31
0.0
  0
LINE
  8
0
 62
     0
 10
92.7213
 20
57.2534
 30
0.0
 11
92.7957
 21
57.719
 31
0.0
  0
LINE
  8
0
 62
     0
 10
92.7957
 20
57.719
 30
0.0
 11
92.7213
 21
58.1808
 31
0.0
  0
LINE
  8
0
 62
     0
 10
92.7213
 20
58.1808
 30
0.0
 11
92.5089
 21
58.601
 31
0.0
  0
LINE
  8
0
 62
     0
 10
92.5089
 20
58.601
 30
0.0
 11
92.177
 21
58.9319
 31
0.0
  0
LINE
  8
0
 62
     0
 10
92.177
 20
58.9319
 30
0.0
 11
91.7593
 21
59.1453
 31
0.0
  0
LINE
  8
0
 62
     0
 10
91.7593
 20
59.1453
 30
0.0
 11
91.2964
 21
59.2183
 31
0.0
  0
LINE
  8
0
 62
     0
 10
91.2964
 20
59.2183
 30
0.0
 11
90.8322
 21
59.1453
 31
0.0
  0
LINE
  8
0
 62
     0
 10
4.63021
 20
59.1453
 30
0.0
 11
4.21266
 21
58.9319
 31
0.0
  0
LINE
  8
0
 62
     0
 10
4.21266
 20
58.9319
 30
0.0
 11
3.88056
 21
58.601
 31
0.0
  0
LINE
  8
0
 62
     0
 10
3.88056
 20
58.601
 30
0.0
 11
3.66832
 21
58.1808
 31
0.0
  0
LINE
  8
0
 62
     0
 10
3.66832
 20
58.1808
 30
0.0
 11
3.5953
 21
57.719
 31
0.0
  0
LINE
  8
0
 62
     0
 10
3.5953
 20
57.719
 30
0.0
 11
3.66832
 21
57.2534
 31
0.0
  0
LINE
  8
0
 62
     0
 10
3.66832
 20
57.2534
 30
0.0
 11
3.88056
 21
56.8371
 31
0.0
  0
LINE
  8
0
 62
     0
 10
3.88056
 20
56.8371
 30
0.0
 11
4.21266
 21
56.5037
 31
0.0
  0
LINE
  8
0
 62
     0
 10
4.21266
 20
56.5037
 30
0.0
 11
4.63021
 21
56.2903
 31
0.0
  0
LINE
  8
0
 62
     0
 10
4.63021
 20
56.2903
 30
0.0
 11
5.0946
 21
56.2169
 31
0.0
  0
LINE
  8
0
 62
     0
 10
5.0946
 20
56.2169
 30
0.0
 11
5.55763
 21
56.2903
 31
0.0
  0
LINE
  8
0
 62
     0
 10
5.55763
 20
56.2903
 30
0.0
 11
5.97517
 21
56.5037
 31
0.0
  0
LINE
  8
0
 62
     0
 10
5.97517
 20
56.5037
 30
0.0
 11
6.30728
 21
56.8371
 31
0.0
  0
LINE
  8
0
 62
     0
 10
6.30728
 20
56.8371
 30
0.0
 11
6.52089
 21
57.2534
 31
0.0
  0
LINE
  8
0
 62
     0
 10
6.52089
 20
57.2534
 30
0.0
 11
6.59529
 21
57.719
 31
0.0
  0
LINE
  8
0
 62
     0
 10
6.59529
 20
57.719
 30
0.0
 11
6.52089
 21
58.1808
 31
0.0
  0
LINE
  8
0
 62
     0
 10
6.52089
 20
58.1808
 30
0.0
 11
6.30728
 21
58.601
 31
0.0
  0
LINE
  8
0
 62
     0
 10
6.30728
 20
58.601
 30
0.0
 11
5.97517
 21
58.9319
 31
0.0
  0
LINE
  8
0
 62
     0
 10
5.97517
 20
58.9319
 30
0.0
 11
5.55763
 21
59.1453
 31
0.0
  0
LINE
  8
0
 62
     0
 10
5.55763
 20
59.1453
 30
0.0
 11
5.0946
 21
59.2183
 31
0.0
  0
LINE
  8
0
 62
     0
 10
5.0946
 20
59.2183
 30
0.0
 11
4.63021
 21
59.1453
 31
0.0
  0
LINE
  8
0
 62
     0
 10
90.8322
 20
111.77
 30
0.0
 11
90.4131
 21
111.556
 31
0.0
  0
LINE
  8
0
 62
     0
 10
90.4131
 20
111.556
 30
0.0
 11
90.0825
 21
111.226
 31
0.0
  0
LINE
  8
0
 62
     0
 10
90.0825
 20
111.226
 30
0.0
 11
89.8687
 21
110.807
 31
0.0
  0
LINE
  8
0
 62
     0
 10
89.8687
 20
110.807
 30
0.0
 11
89.7957
 21
110.344
 31
0.0
  0
LINE
  8
0
 62
     0
 10
89.7957
 20
110.344
 30
0.0
 11
89.8687
 21
109.879
 31
0.0
  0
LINE
  8
0
 62
     0
 10
89.8687
 20
109.879
 30
0.0
 11
90.0825
 21
109.462
 31
0.0
  0
LINE
  8
0
 62
     0
 10
90.0825
 20
109.462
 30
0.0
 11
90.4131
 21
109.13
 31
0.0
  0
LINE
  8
0
 62
     0
 10
90.4131
 20
109.13
 30
0.0
 11
90.8322
 21
108.917
 31
0.0
  0
LINE
  8
0
 62
     0
 10
90.8322
 20
108.917
 30
0.0
 11
91.2964
 21
108.843
 31
0.0
  0
LINE
  8
0
 62
     0
 10
91.2964
 20
108.843
 30
0.0
 11
91.7593
 21
108.917
 31
0.0
  0
LINE
  8
0
 62
     0
 10
91.7593
 20
108.917
 30
0.0
 11
92.177
 21
109.13
 31
0.0
  0
LINE
  8
0
 62
     0
 10
92.177
 20
109.13
 30
0.0
 11
92.5089
 21
109.462
 31
0.0
  0
LINE
  8
0
 62
     0
 10
92.5089
 20
109.462
 30
0.0
 11
92.7213
 21
109.879
 31
0.0
  0
LINE
  8
0
 62
     0
 10
92.7213
 20
109.879
 30
0.0
 11
92.7957
 21
110.344
 31
0.0
  0
LINE
  8
0
 62
     0
 10
92.7957
 20
110.344
 30
0.0
 11
92.7213
 21
110.807
 31
0.0
  0
LINE
  8
0
 62
     0
 10
92.7213
 20
110.807
 30
0.0
 11
92.5089
 21
111.226
 31
0.0
  0
LINE
  8
0
 62
     0
 10
92.5089
 20
111.226
 30
0.0
 11
92.177
 21
111.556
 31
0.0
  0
LINE
  8
0
 62
     0
 10
92.177
 20
111.556
 30
0.0
 11
91.7593
 21
111.77
 31
0.0
  0
LINE
  8
0
 62
     0
 10
91.7593
 20
111.77
 30
0.0
 11
91.2964
 21
111.843
 31
0.0
  0
LINE
  8
0
 62
     0
 10
91.2964
 20
111.843
 30
0.0
 11
90.8322
 21
111.77
 31
0.0
  0
LINE
  8
0
 62
     0
 10
4.63021
 20
111.77
 30
0.0
 11
4.21266
 21
111.556
 31
0.0
  0
LINE
  8
0
 62
     0
 10
4.21266
 20
111.556
 30
0.0
 11
3.88056
 21
111.226
 31
0.0
  0
LINE
  8
0
 62
     0
 10
3.88056
 20
111.226
 30
0.0
 11
3.66832
 21
110.807
 31
0.0
  0
LINE
  8
0
 62
     0
 10
3.66832
 20
110.807
 30
0.0
 11
3.5953
 21
110.344
 31
0.0
  0
LINE
  8
0
 62
     0
 10
3.5953
 20
110.344
 30
0.0
 11
3.66832
 21
109.879
 31
0.0
  0
LINE
  8
0
 62
     0
 10
3.66832
 20
109.879
 30
0.0
 11
3.88056
 21
109.462
 31
0.0
  0
LINE
  8
0
 62
     0
 10
3.88056
 20
109.462
 30
0.0
 11
4.21266
 21
109.13
 31
0.0
  0
LINE
  8
0
 62
     0
 10
4.21266
 20
109.13
 30
0.0
 11
4.63021
 21
108.917
 31
0.0
  0
LINE
  8
0
 62
     0
 10
4.63021
 20
108.917
 30
0.0
 11
5.0946
 21
108.843
 31
0.0
  0
LINE
  8
0
 62
     0
 10
5.0946
 20
108.843
 30
0.0
 11
5.55763
 21
108.917
 31
0.0
  0
LINE
  8
0
 62
     0
 10
5.55763
 20
108.917
 30
0.0
 11
5.97517
 21
109.13
 31
0.0
  0
LINE
  8
0
 62
     0
 10
5.97517
 20
109.13
 30
0.0
 11
6.30728
 21
109.462
 31
0.0
  0
LINE
  8
0
 62
     0
 10
6.30728
 20
109.462
 30
0.0
 11
6.52089
 21
109.879
 31
0.0
  0
LINE
  8
0
 62
     0
 10
6.52089
 20
109.879
 30
0.0
 11
6.59529
 21
110.344
 31
0.0
  0
LINE
  8
0
 62
     0
 10
6.59529
 20
110.344
 30
0.0
 11
6.52089
 21
110.807
 31
0.0
  0
LINE
  8
0
 62
     0
 10
6.52089
 20
110.807
 30
0.0
 11
6.30728
 21
111.226
 31
0.0
  0
LINE
  8
0
 62
     0
 10
6.30728
 20
111.226
 30
0.0
 11
5.97517
 21
111.556
 31
0.0
  0
LINE
  8
0
 62
     0
 10
5.97517
 20
111.556
 30
0.0
 11
5.55763
 21
111.77
 31
0.0
  0
LINE
  8
0
 62
     0
 10
5.55763
 20
111.77
 30
0.0
 11
5.0946
 21
111.843
 31
0.0
  0
LINE
  8
0
 62
     0
 10
5.0946
 20
111.843
 30
0.0
 11
4.63021
 21
111.77
 31
0.0
  0
ENDSEC
  0
EOF
