G04 #@! TF.GenerationSoftware,KiCad,Pcbnew,(5.1.5)-3*
G04 #@! TF.CreationDate,2020-07-25T15:17:41-04:00*
G04 #@! TF.ProjectId,bottom-plate,626f7474-6f6d-42d7-906c-6174652e6b69,rev?*
G04 #@! TF.SameCoordinates,Original*
G04 #@! TF.FileFunction,Soldermask,Top*
G04 #@! TF.FilePolarity,Negative*
%FSLAX46Y46*%
G04 Gerber Fmt 4.6, Leading zero omitted, Abs format (unit mm)*
G04 Created by KiCad (PCBNEW (5.1.5)-3) date 2020-07-25 15:17:41*
%MOMM*%
%LPD*%
G04 APERTURE LIST*
%ADD10C,0.300000*%
%ADD11C,5.203200*%
G04 APERTURE END LIST*
D10*
X135010714Y-143548571D02*
X134510714Y-142834285D01*
X134153571Y-143548571D02*
X134153571Y-142048571D01*
X134725000Y-142048571D01*
X134867857Y-142120000D01*
X134939285Y-142191428D01*
X135010714Y-142334285D01*
X135010714Y-142548571D01*
X134939285Y-142691428D01*
X134867857Y-142762857D01*
X134725000Y-142834285D01*
X134153571Y-142834285D01*
X136225000Y-143477142D02*
X136082142Y-143548571D01*
X135796428Y-143548571D01*
X135653571Y-143477142D01*
X135582142Y-143334285D01*
X135582142Y-142762857D01*
X135653571Y-142620000D01*
X135796428Y-142548571D01*
X136082142Y-142548571D01*
X136225000Y-142620000D01*
X136296428Y-142762857D01*
X136296428Y-142905714D01*
X135582142Y-143048571D01*
X137153571Y-143548571D02*
X137010714Y-143477142D01*
X136939285Y-143334285D01*
X136939285Y-142048571D01*
X138296428Y-143477142D02*
X138153571Y-143548571D01*
X137867857Y-143548571D01*
X137725000Y-143477142D01*
X137653571Y-143334285D01*
X137653571Y-142762857D01*
X137725000Y-142620000D01*
X137867857Y-142548571D01*
X138153571Y-142548571D01*
X138296428Y-142620000D01*
X138367857Y-142762857D01*
X138367857Y-142905714D01*
X137653571Y-143048571D01*
X139653571Y-143548571D02*
X139653571Y-142762857D01*
X139582142Y-142620000D01*
X139439285Y-142548571D01*
X139153571Y-142548571D01*
X139010714Y-142620000D01*
X139653571Y-143477142D02*
X139510714Y-143548571D01*
X139153571Y-143548571D01*
X139010714Y-143477142D01*
X138939285Y-143334285D01*
X138939285Y-143191428D01*
X139010714Y-143048571D01*
X139153571Y-142977142D01*
X139510714Y-142977142D01*
X139653571Y-142905714D01*
X140296428Y-143477142D02*
X140439285Y-143548571D01*
X140725000Y-143548571D01*
X140867857Y-143477142D01*
X140939285Y-143334285D01*
X140939285Y-143262857D01*
X140867857Y-143120000D01*
X140725000Y-143048571D01*
X140510714Y-143048571D01*
X140367857Y-142977142D01*
X140296428Y-142834285D01*
X140296428Y-142762857D01*
X140367857Y-142620000D01*
X140510714Y-142548571D01*
X140725000Y-142548571D01*
X140867857Y-142620000D01*
X142153571Y-143477142D02*
X142010714Y-143548571D01*
X141725000Y-143548571D01*
X141582142Y-143477142D01*
X141510714Y-143334285D01*
X141510714Y-142762857D01*
X141582142Y-142620000D01*
X141725000Y-142548571D01*
X142010714Y-142548571D01*
X142153571Y-142620000D01*
X142225000Y-142762857D01*
X142225000Y-142905714D01*
X141510714Y-143048571D01*
X143510714Y-143548571D02*
X143510714Y-142048571D01*
X143510714Y-143477142D02*
X143367857Y-143548571D01*
X143082142Y-143548571D01*
X142939285Y-143477142D01*
X142867857Y-143405714D01*
X142796428Y-143262857D01*
X142796428Y-142834285D01*
X142867857Y-142691428D01*
X142939285Y-142620000D01*
X143082142Y-142548571D01*
X143367857Y-142548571D01*
X143510714Y-142620000D01*
X146010714Y-142548571D02*
X146010714Y-143548571D01*
X145367857Y-142548571D02*
X145367857Y-143334285D01*
X145439285Y-143477142D01*
X145582142Y-143548571D01*
X145796428Y-143548571D01*
X145939285Y-143477142D01*
X146010714Y-143405714D01*
X146725000Y-142548571D02*
X146725000Y-143548571D01*
X146725000Y-142691428D02*
X146796428Y-142620000D01*
X146939285Y-142548571D01*
X147153571Y-142548571D01*
X147296428Y-142620000D01*
X147367857Y-142762857D01*
X147367857Y-143548571D01*
X148725000Y-143548571D02*
X148725000Y-142048571D01*
X148725000Y-143477142D02*
X148582142Y-143548571D01*
X148296428Y-143548571D01*
X148153571Y-143477142D01*
X148082142Y-143405714D01*
X148010714Y-143262857D01*
X148010714Y-142834285D01*
X148082142Y-142691428D01*
X148153571Y-142620000D01*
X148296428Y-142548571D01*
X148582142Y-142548571D01*
X148725000Y-142620000D01*
X150010714Y-143477142D02*
X149867857Y-143548571D01*
X149582142Y-143548571D01*
X149439285Y-143477142D01*
X149367857Y-143334285D01*
X149367857Y-142762857D01*
X149439285Y-142620000D01*
X149582142Y-142548571D01*
X149867857Y-142548571D01*
X150010714Y-142620000D01*
X150082142Y-142762857D01*
X150082142Y-142905714D01*
X149367857Y-143048571D01*
X150725000Y-143548571D02*
X150725000Y-142548571D01*
X150725000Y-142834285D02*
X150796428Y-142691428D01*
X150867857Y-142620000D01*
X151010714Y-142548571D01*
X151153571Y-142548571D01*
X153653571Y-143405714D02*
X153582142Y-143477142D01*
X153367857Y-143548571D01*
X153225000Y-143548571D01*
X153010714Y-143477142D01*
X152867857Y-143334285D01*
X152796428Y-143191428D01*
X152725000Y-142905714D01*
X152725000Y-142691428D01*
X152796428Y-142405714D01*
X152867857Y-142262857D01*
X153010714Y-142120000D01*
X153225000Y-142048571D01*
X153367857Y-142048571D01*
X153582142Y-142120000D01*
X153653571Y-142191428D01*
X155153571Y-143405714D02*
X155082142Y-143477142D01*
X154867857Y-143548571D01*
X154725000Y-143548571D01*
X154510714Y-143477142D01*
X154367857Y-143334285D01*
X154296428Y-143191428D01*
X154225000Y-142905714D01*
X154225000Y-142691428D01*
X154296428Y-142405714D01*
X154367857Y-142262857D01*
X154510714Y-142120000D01*
X154725000Y-142048571D01*
X154867857Y-142048571D01*
X155082142Y-142120000D01*
X155153571Y-142191428D01*
X155796428Y-142977142D02*
X156939285Y-142977142D01*
X158153571Y-142762857D02*
X158367857Y-142834285D01*
X158439285Y-142905714D01*
X158510714Y-143048571D01*
X158510714Y-143262857D01*
X158439285Y-143405714D01*
X158367857Y-143477142D01*
X158225000Y-143548571D01*
X157653571Y-143548571D01*
X157653571Y-142048571D01*
X158153571Y-142048571D01*
X158296428Y-142120000D01*
X158367857Y-142191428D01*
X158439285Y-142334285D01*
X158439285Y-142477142D01*
X158367857Y-142620000D01*
X158296428Y-142691428D01*
X158153571Y-142762857D01*
X157653571Y-142762857D01*
X159439285Y-142834285D02*
X159439285Y-143548571D01*
X158939285Y-142048571D02*
X159439285Y-142834285D01*
X159939285Y-142048571D01*
X160439285Y-142977142D02*
X161582142Y-142977142D01*
X162225000Y-143477142D02*
X162439285Y-143548571D01*
X162796428Y-143548571D01*
X162939285Y-143477142D01*
X163010714Y-143405714D01*
X163082142Y-143262857D01*
X163082142Y-143120000D01*
X163010714Y-142977142D01*
X162939285Y-142905714D01*
X162796428Y-142834285D01*
X162510714Y-142762857D01*
X162367857Y-142691428D01*
X162296428Y-142620000D01*
X162225000Y-142477142D01*
X162225000Y-142334285D01*
X162296428Y-142191428D01*
X162367857Y-142120000D01*
X162510714Y-142048571D01*
X162867857Y-142048571D01*
X163082142Y-142120000D01*
X163653571Y-143120000D02*
X164367857Y-143120000D01*
X163510714Y-143548571D02*
X164010714Y-142048571D01*
X164510714Y-143548571D01*
X133153571Y-146098571D02*
X133153571Y-144598571D01*
X133510714Y-144598571D01*
X133725000Y-144670000D01*
X133867857Y-144812857D01*
X133939285Y-144955714D01*
X134010714Y-145241428D01*
X134010714Y-145455714D01*
X133939285Y-145741428D01*
X133867857Y-145884285D01*
X133725000Y-146027142D01*
X133510714Y-146098571D01*
X133153571Y-146098571D01*
X135225000Y-146027142D02*
X135082142Y-146098571D01*
X134796428Y-146098571D01*
X134653571Y-146027142D01*
X134582142Y-145884285D01*
X134582142Y-145312857D01*
X134653571Y-145170000D01*
X134796428Y-145098571D01*
X135082142Y-145098571D01*
X135225000Y-145170000D01*
X135296428Y-145312857D01*
X135296428Y-145455714D01*
X134582142Y-145598571D01*
X135867857Y-146027142D02*
X136010714Y-146098571D01*
X136296428Y-146098571D01*
X136439285Y-146027142D01*
X136510714Y-145884285D01*
X136510714Y-145812857D01*
X136439285Y-145670000D01*
X136296428Y-145598571D01*
X136082142Y-145598571D01*
X135939285Y-145527142D01*
X135867857Y-145384285D01*
X135867857Y-145312857D01*
X135939285Y-145170000D01*
X136082142Y-145098571D01*
X136296428Y-145098571D01*
X136439285Y-145170000D01*
X137153571Y-146098571D02*
X137153571Y-145098571D01*
X137153571Y-144598571D02*
X137082142Y-144670000D01*
X137153571Y-144741428D01*
X137225000Y-144670000D01*
X137153571Y-144598571D01*
X137153571Y-144741428D01*
X138510714Y-145098571D02*
X138510714Y-146312857D01*
X138439285Y-146455714D01*
X138367857Y-146527142D01*
X138225000Y-146598571D01*
X138010714Y-146598571D01*
X137867857Y-146527142D01*
X138510714Y-146027142D02*
X138367857Y-146098571D01*
X138082142Y-146098571D01*
X137939285Y-146027142D01*
X137867857Y-145955714D01*
X137796428Y-145812857D01*
X137796428Y-145384285D01*
X137867857Y-145241428D01*
X137939285Y-145170000D01*
X138082142Y-145098571D01*
X138367857Y-145098571D01*
X138510714Y-145170000D01*
X139225000Y-145098571D02*
X139225000Y-146098571D01*
X139225000Y-145241428D02*
X139296428Y-145170000D01*
X139439285Y-145098571D01*
X139653571Y-145098571D01*
X139796428Y-145170000D01*
X139867857Y-145312857D01*
X139867857Y-146098571D01*
X141153571Y-146027142D02*
X141010714Y-146098571D01*
X140725000Y-146098571D01*
X140582142Y-146027142D01*
X140510714Y-145884285D01*
X140510714Y-145312857D01*
X140582142Y-145170000D01*
X140725000Y-145098571D01*
X141010714Y-145098571D01*
X141153571Y-145170000D01*
X141225000Y-145312857D01*
X141225000Y-145455714D01*
X140510714Y-145598571D01*
X142510714Y-146098571D02*
X142510714Y-144598571D01*
X142510714Y-146027142D02*
X142367857Y-146098571D01*
X142082142Y-146098571D01*
X141939285Y-146027142D01*
X141867857Y-145955714D01*
X141796428Y-145812857D01*
X141796428Y-145384285D01*
X141867857Y-145241428D01*
X141939285Y-145170000D01*
X142082142Y-145098571D01*
X142367857Y-145098571D01*
X142510714Y-145170000D01*
X144367857Y-146098571D02*
X144367857Y-144598571D01*
X144367857Y-145170000D02*
X144510714Y-145098571D01*
X144796428Y-145098571D01*
X144939285Y-145170000D01*
X145010714Y-145241428D01*
X145082142Y-145384285D01*
X145082142Y-145812857D01*
X145010714Y-145955714D01*
X144939285Y-146027142D01*
X144796428Y-146098571D01*
X144510714Y-146098571D01*
X144367857Y-146027142D01*
X145582142Y-145098571D02*
X145939285Y-146098571D01*
X146296428Y-145098571D02*
X145939285Y-146098571D01*
X145796428Y-146455714D01*
X145725000Y-146527142D01*
X145582142Y-146598571D01*
X148867857Y-145955714D02*
X148796428Y-146027142D01*
X148582142Y-146098571D01*
X148439285Y-146098571D01*
X148225000Y-146027142D01*
X148082142Y-145884285D01*
X148010714Y-145741428D01*
X147939285Y-145455714D01*
X147939285Y-145241428D01*
X148010714Y-144955714D01*
X148082142Y-144812857D01*
X148225000Y-144670000D01*
X148439285Y-144598571D01*
X148582142Y-144598571D01*
X148796428Y-144670000D01*
X148867857Y-144741428D01*
X149725000Y-146098571D02*
X149582142Y-146027142D01*
X149510714Y-145884285D01*
X149510714Y-144598571D01*
X150939285Y-146098571D02*
X150939285Y-145312857D01*
X150867857Y-145170000D01*
X150725000Y-145098571D01*
X150439285Y-145098571D01*
X150296428Y-145170000D01*
X150939285Y-146027142D02*
X150796428Y-146098571D01*
X150439285Y-146098571D01*
X150296428Y-146027142D01*
X150225000Y-145884285D01*
X150225000Y-145741428D01*
X150296428Y-145598571D01*
X150439285Y-145527142D01*
X150796428Y-145527142D01*
X150939285Y-145455714D01*
X152296428Y-146027142D02*
X152153571Y-146098571D01*
X151867857Y-146098571D01*
X151725000Y-146027142D01*
X151653571Y-145955714D01*
X151582142Y-145812857D01*
X151582142Y-145384285D01*
X151653571Y-145241428D01*
X151725000Y-145170000D01*
X151867857Y-145098571D01*
X152153571Y-145098571D01*
X152296428Y-145170000D01*
X152939285Y-146098571D02*
X152939285Y-144598571D01*
X153082142Y-145527142D02*
X153510714Y-146098571D01*
X153510714Y-145098571D02*
X152939285Y-145670000D01*
X154082142Y-146027142D02*
X154225000Y-146098571D01*
X154510714Y-146098571D01*
X154653571Y-146027142D01*
X154725000Y-145884285D01*
X154725000Y-145812857D01*
X154653571Y-145670000D01*
X154510714Y-145598571D01*
X154296428Y-145598571D01*
X154153571Y-145527142D01*
X154082142Y-145384285D01*
X154082142Y-145312857D01*
X154153571Y-145170000D01*
X154296428Y-145098571D01*
X154510714Y-145098571D01*
X154653571Y-145170000D01*
X155153571Y-145098571D02*
X155725000Y-145098571D01*
X155367857Y-144598571D02*
X155367857Y-145884285D01*
X155439285Y-146027142D01*
X155582142Y-146098571D01*
X155725000Y-146098571D01*
X156796428Y-146027142D02*
X156653571Y-146098571D01*
X156367857Y-146098571D01*
X156225000Y-146027142D01*
X156153571Y-145884285D01*
X156153571Y-145312857D01*
X156225000Y-145170000D01*
X156367857Y-145098571D01*
X156653571Y-145098571D01*
X156796428Y-145170000D01*
X156867857Y-145312857D01*
X156867857Y-145455714D01*
X156153571Y-145598571D01*
X157510714Y-146098571D02*
X157510714Y-145098571D01*
X157510714Y-145384285D02*
X157582142Y-145241428D01*
X157653571Y-145170000D01*
X157796428Y-145098571D01*
X157939285Y-145098571D01*
X159439285Y-144598571D02*
X159796428Y-146098571D01*
X160082142Y-145027142D01*
X160367857Y-146098571D01*
X160725000Y-144598571D01*
X161510714Y-146098571D02*
X161367857Y-146027142D01*
X161296428Y-145955714D01*
X161225000Y-145812857D01*
X161225000Y-145384285D01*
X161296428Y-145241428D01*
X161367857Y-145170000D01*
X161510714Y-145098571D01*
X161725000Y-145098571D01*
X161867857Y-145170000D01*
X161939285Y-145241428D01*
X162010714Y-145384285D01*
X162010714Y-145812857D01*
X161939285Y-145955714D01*
X161867857Y-146027142D01*
X161725000Y-146098571D01*
X161510714Y-146098571D01*
X162653571Y-146098571D02*
X162653571Y-145098571D01*
X162653571Y-145384285D02*
X162725000Y-145241428D01*
X162796428Y-145170000D01*
X162939285Y-145098571D01*
X163082142Y-145098571D01*
X163582142Y-146098571D02*
X163582142Y-144598571D01*
X163725000Y-145527142D02*
X164153571Y-146098571D01*
X164153571Y-145098571D02*
X163582142Y-145670000D01*
X164725000Y-146027142D02*
X164867857Y-146098571D01*
X165153571Y-146098571D01*
X165296428Y-146027142D01*
X165367857Y-145884285D01*
X165367857Y-145812857D01*
X165296428Y-145670000D01*
X165153571Y-145598571D01*
X164939285Y-145598571D01*
X164796428Y-145527142D01*
X164725000Y-145384285D01*
X164725000Y-145312857D01*
X164796428Y-145170000D01*
X164939285Y-145098571D01*
X165153571Y-145098571D01*
X165296428Y-145170000D01*
D11*
X105410000Y-43180000D03*
X105410000Y-149860000D03*
X105410000Y-96520000D03*
X193040000Y-149860000D03*
X149225000Y-149860000D03*
X193040000Y-43180000D03*
X193040000Y-96520000D03*
M02*
